<svg width="149" height="288" viewBox="0 0 149 288" fill="none" xmlns="http://www.w3.org/2000/svg">
<path d="M50.8777 283.18V274.343L35.0338 274.229L34.8994 287.593L35.8813 287.665C40.2531 287.944 58.1228 288.358 61.058 287.448C64.3239 286.435 50.8777 283.18 50.8777 283.18Z" fill="#4CAF4F"/>
<path d="M61.4301 286.621C61.4301 286.766 55.4977 286.89 48.1906 286.89C40.8836 286.89 34.9512 286.766 34.9512 286.621C34.9512 286.477 40.8836 286.353 48.1906 286.353C55.4977 286.353 61.4301 286.477 61.4301 286.621Z" fill="#263238"/>
<path d="M51.157 284.988C51.0226 284.916 51.157 284.451 51.4774 283.955C51.7978 283.459 52.2318 283.252 52.3352 283.355C52.4386 283.459 52.2215 283.851 51.9115 284.275C51.6014 284.699 51.2913 285.061 51.157 284.988Z" fill="#263238"/>
<path d="M52.1697 285.567C52.025 285.567 52.0974 284.988 52.4075 284.441C52.7175 283.893 53.1309 283.562 53.2446 283.645C53.3583 283.727 53.1723 284.193 52.8829 284.678C52.5935 285.164 52.3041 285.619 52.1697 285.567Z" fill="#263238"/>
<path d="M39.7261 286.58C39.6641 286.58 39.4264 286.394 39.0854 286.001C38.669 285.496 38.2052 285.033 37.7004 284.616C37.204 284.22 36.6126 283.96 35.9848 283.862C35.499 283.8 35.189 283.862 35.1579 283.8C35.1269 283.738 35.4267 283.521 35.9951 283.479C36.7453 283.464 37.4771 283.712 38.0622 284.182C38.6103 284.629 39.0726 285.172 39.4264 285.784C39.6641 286.239 39.7881 286.539 39.7261 286.58Z" fill="#263238"/>
<path d="M51.2085 283.324C51.2809 283.448 51.0122 283.758 50.5574 283.924C50.1027 284.089 49.6996 284.027 49.6789 283.924C49.6583 283.82 49.9786 283.603 50.3714 283.459C50.7641 283.314 51.1259 283.2 51.2085 283.324Z" fill="#263238"/>
<path d="M50.9605 282.467C50.9605 282.622 50.5471 282.746 50.0096 282.756C49.4722 282.766 49.0484 282.642 49.0588 282.498C49.0691 282.353 49.4929 282.219 50.0096 282.208C50.5264 282.198 50.9398 282.322 50.9605 282.467Z" fill="#263238"/>
<path d="M89.8933 283.18V274.343L74.0494 274.229L73.915 287.459L74.8969 287.531C79.2687 287.81 97.1487 288.358 100.074 287.448C103.34 286.435 89.8933 283.18 89.8933 283.18Z" fill="#4CAF4F"/>
<path d="M100.446 286.642C100.446 286.787 94.5236 286.911 87.2062 286.911C79.8888 286.911 73.9771 286.787 73.9771 286.642C73.9771 286.497 79.8992 286.373 87.2062 286.373C94.5132 286.373 100.446 286.497 100.446 286.642Z" fill="#263238"/>
<path d="M90.1726 284.988C90.0486 284.916 90.1726 284.451 90.493 283.955C90.8134 283.459 91.2475 283.252 91.3508 283.355C91.4542 283.459 91.2371 283.851 90.9271 284.275C90.617 284.699 90.307 285.061 90.1726 284.988Z" fill="#263238"/>
<path d="M91.1853 285.567C91.0509 285.567 91.113 284.988 91.4333 284.441C91.7537 283.893 92.1568 283.562 92.2705 283.645C92.3842 283.727 92.1878 284.193 91.8984 284.678C91.609 285.164 91.33 285.619 91.1853 285.567Z" fill="#263238"/>
<path d="M78.7418 286.58C78.6797 286.58 78.4524 286.394 78.101 286.001C77.6846 285.496 77.2209 285.033 76.716 284.616C76.2196 284.22 75.6282 283.96 75.0004 283.862C74.525 283.8 74.2046 283.862 74.1736 283.8C74.1426 283.738 74.4423 283.521 75.0107 283.479C75.7609 283.464 76.4927 283.712 77.0778 284.182C77.6288 284.626 78.0915 285.169 78.442 285.784C78.6798 286.239 78.8038 286.539 78.7418 286.58Z" fill="#263238"/>
<path d="M90.2242 283.324C90.2965 283.448 90.0278 283.758 89.573 283.924C89.1183 284.089 88.7152 284.027 88.6946 283.924C88.6739 283.82 88.9943 283.603 89.387 283.459C89.7798 283.314 90.1415 283.2 90.2242 283.324Z" fill="#263238"/>
<path d="M89.9968 282.467C89.9968 282.622 89.5834 282.746 89.0459 282.756C88.5085 282.766 88.0951 282.642 88.1054 282.498C88.1157 282.353 88.5292 282.219 89.0459 282.208C89.5627 282.198 89.9968 282.322 89.9968 282.467Z" fill="#263238"/>
<path d="M148.267 20.7674C147.854 20.3436 146.83 20.5503 146.83 20.5503C146.933 19.9553 146.933 19.3471 146.83 18.752C146.644 18.1732 145.342 18.2869 145.342 18.2869C145.282 17.7995 145.282 17.3067 145.342 16.8193C145.352 16.7113 145.329 16.6027 145.276 16.5083C145.222 16.414 145.141 16.3385 145.042 16.2922C144.426 16.041 143.764 15.9213 143.099 15.9408C142.304 15.3724 145.528 10.8559 146.727 9.40892C147.926 7.96198 147.709 6.83545 146.644 6.83545C145.911 6.83545 142.149 11.1763 140.991 12.6335C139.833 14.0908 136.764 18.1422 136.661 14.9073C136.557 11.6724 135.255 9.23323 134.438 8.81982C133.622 8.40641 132.754 9.37791 133.198 10.2771C133.589 11.2986 133.832 12.3704 133.922 13.4603C134.034 14.3286 133.995 15.2097 133.808 16.0648C133.465 17.656 132.999 19.2179 132.413 20.7364H132.33C132.33 20.7364 109.778 42.3681 108.146 43.908C106.688 45.293 77.3774 42.2647 71.4967 41.6446C69.4983 41.3522 67.4804 41.214 65.4609 41.2312C62.9081 41.3449 62.4533 41.7066 59.9108 41.7376C53.49 41.8089 47.084 42.3721 40.7493 43.4223C37.8808 43.9099 35.2015 45.1761 33.0035 47.0825C30.8054 48.9889 29.1732 51.4623 28.2849 54.233C22.3628 72.7331 8.94764 116.524 6.58086 141.122C4.7924 144.365 3.17783 147.701 1.74397 151.116C0.079989 155.643 0.483064 155.798 1.04117 155.901C2.55012 156.18 4.26577 148.056 4.90655 150.02C5.54734 151.984 1.65095 159.704 3.23225 159.932C5.2993 160.221 6.94261 151.663 7.13898 150.981C7.33535 150.299 8.35854 150.516 8.1725 151.157C7.87278 152.067 4.96857 161.709 6.99428 162.019C8.11049 162.185 8.23451 160.149 8.23451 160.149C8.23451 160.149 10.3016 150.919 11.2421 151.105C12.1826 151.291 11.1801 156.738 10.7046 158.557C10.2292 160.376 10.8907 161.296 11.8622 160.852C12.5236 160.542 14.1049 155.012 14.539 153.214C14.9731 151.415 16.0583 146.434 17.5156 149.317C18.9728 152.201 21.1846 153.875 22.0941 153.917C22.299 153.893 22.4922 153.809 22.6488 153.674C22.8053 153.54 22.9181 153.362 22.9726 153.163C23.027 152.964 23.0207 152.753 22.9544 152.558C22.8881 152.362 22.7649 152.191 22.6005 152.067C21.8183 151.303 21.1468 150.433 20.6058 149.483C20.1237 148.743 19.774 147.924 19.5723 147.064C19.1558 145.35 18.9134 143.598 18.8488 141.835L18.6835 140.801C20.9986 129.339 27.6648 95.698 37.2869 74.211L41.235 82.3345L42.9507 88.3497L32.4294 114.322L77.3051 113.733L70.6078 87.9569L78.7417 61.0852C87.537 61.2816 110.12 61.6123 113.882 59.907C118.615 57.84 143.099 26.9169 143.099 26.9169C144.695 25.6767 146.224 24.3519 147.678 22.9481C147.678 22.9481 149.166 21.6976 148.267 20.7674Z" fill="#FFBE9D"/>
<path d="M30.4552 95.1295C31.7575 90.6854 38.4444 68.7126 38.4444 68.7126C38.4444 68.7126 41.731 86.6236 40.8628 88.7837C40.0642 90.6329 39.1208 92.4161 38.0413 94.1167C30.4552 105.661 31.4474 111.439 31.4474 111.439L77.2843 110.043C77.3876 103.635 73.5946 88.732 72.8091 86.3549C72.0236 83.9778 74.6385 76.1953 74.6385 76.1953C74.6385 76.1953 79.8061 70.9347 79.6201 68.2268C79.5219 65.7945 79.2211 63.3745 78.7209 60.9922L106.626 62.0257L105.748 43.1121L65.6675 39.1021C64.2722 43.0398 51.6528 41.1071 51.6528 41.1071C38.031 41.5618 37.1835 44.063 31.5197 48.4658C25.856 52.8686 16.4819 90.6544 16.4819 90.6544L30.4552 95.1295Z" fill="#4CAF4F"/>
<path d="M57.5544 90.6544C56.7601 90.7963 55.951 90.838 55.1463 90.7784C53.6477 90.7784 51.591 90.6751 49.3275 90.4477C47.0641 90.2203 45.0177 89.8999 43.5605 89.6105C42.7569 89.5071 41.969 89.3058 41.2144 89.0111C42.0224 89.0114 42.8286 89.0876 43.6225 89.2385C45.0901 89.4245 47.1261 89.6829 49.3792 89.9103C51.6323 90.1376 53.6787 90.2927 55.1566 90.396C55.9622 90.4062 56.7651 90.4927 57.5544 90.6544Z" fill="#263238"/>
<path d="M60.6962 86.7581C59.9016 87.1473 59.0614 87.4355 58.1951 87.6159C54.0717 88.6994 49.8175 89.2038 45.5551 89.1145C44.6731 89.1432 43.791 89.0599 42.9299 88.8664C43.8004 88.7565 44.6779 88.7116 45.5551 88.7321C47.1777 88.6804 49.4101 88.5667 51.8699 88.2773C54.3297 87.988 56.5208 87.5745 58.0711 87.2438C58.9322 87.0139 59.8099 86.8515 60.6962 86.7581Z" fill="#263238"/>
<path d="M76.1165 69.3741C76.0956 70.1621 75.9882 70.9454 75.7961 71.7099C75.5274 73.1465 75.114 75.1102 74.5869 77.26C74.0598 79.4097 73.5534 81.3941 73.0986 82.7376C72.9158 83.5067 72.6453 84.2523 72.2925 84.9597C72.3501 84.1742 72.4957 83.3976 72.7266 82.6446C73.1193 81.0323 73.5637 79.172 74.0598 77.1359C74.5559 75.0999 75.0313 73.2395 75.4241 71.6272C75.564 70.8512 75.7965 70.0948 76.1165 69.3741Z" fill="#263238"/>
<path d="M30.9411 92.4941C28.5501 92.1249 26.1904 91.5756 23.8821 90.8508C21.5235 90.2993 19.209 89.5739 16.9575 88.6804C19.3474 89.0557 21.7066 89.6049 24.0165 90.3237C26.3757 90.8733 28.6904 91.5988 30.9411 92.4941Z" fill="#263238"/>
<path d="M79.2171 60.7649C78.8273 60.832 78.4288 60.832 78.0389 60.7649C76.9594 60.6541 75.8993 60.4004 74.8866 60.0104C73.1959 59.3751 71.6568 58.3931 70.3681 57.1276C69.0794 55.8621 68.0698 54.341 67.4039 52.662C66.6679 50.8151 66.3537 48.8271 66.4841 46.8433C66.5302 45.2069 67.0195 43.6138 67.9 42.2337C68.5193 41.3041 69.4443 40.6203 70.5148 40.301C70.8009 40.2221 71.0966 40.1838 71.3933 40.1874C71.6 40.1874 71.7034 40.1874 71.7034 40.1874C71.7034 40.1874 71.2693 40.1874 70.5768 40.4664C69.5948 40.8292 68.7618 41.5094 68.2101 42.3991C66.8045 44.6108 66.4117 48.6519 67.9103 52.4243C68.6078 54.203 69.6998 55.8003 71.1039 57.0958C72.2545 58.156 73.5797 59.0091 75.021 59.6177C76.3736 60.1522 77.7807 60.5369 79.2171 60.7649Z" fill="#263238"/>
<path d="M103.309 61.6536C103.05 58.4842 102.967 55.303 103.061 52.1245C102.98 48.9486 103.076 45.7708 103.35 42.6057C103.609 45.7716 103.691 48.9494 103.598 52.1245C103.685 55.3038 103.588 58.4854 103.309 61.6536Z" fill="#263238"/>
<path d="M65.3989 40.2596C65.5126 37.9548 65.7503 35.3504 65.7503 35.3504C65.7503 35.3504 71.4554 34.7199 71.7964 28.8288C72.1375 22.9377 71.7964 9.34683 71.7964 9.34683L61.4612 4.05518L49.989 13.0779L51.7564 42.5334L62.2776 43.2051C63.0819 43.2274 63.8621 42.9298 64.4472 42.3776C65.0323 41.8255 65.3746 41.0638 65.3989 40.2596Z" fill="#FFBE9D"/>
<path d="M66.4219 24.1677C66.4219 24.1677 66.422 24.2814 66.3289 24.4157C66.252 24.5132 66.1526 24.5905 66.0391 24.6409C65.9257 24.6913 65.8017 24.7134 65.6778 24.7051C65.0164 24.7051 64.3756 23.9403 64.1482 23.0515C64.0401 22.6206 64.0401 22.1698 64.1482 21.7389C64.1694 21.5508 64.2372 21.371 64.3455 21.2158C64.4538 21.0606 64.5991 20.9349 64.7683 20.8501C64.9073 20.7927 65.0634 20.7927 65.2024 20.8501C65.3054 20.9012 65.3889 20.9847 65.4401 21.0878C65.5124 21.2635 65.4401 21.3772 65.4401 21.3668C65.4401 21.3565 65.4401 21.2635 65.3367 21.1601C65.2827 21.0861 65.2033 21.0346 65.1136 21.0156C65.024 20.9965 64.9305 21.0112 64.851 21.0568C64.7242 21.1334 64.6189 21.2409 64.5448 21.3692C64.4707 21.4975 64.4303 21.6424 64.4272 21.7906C64.3402 22.175 64.3402 22.574 64.4272 22.9585C64.6339 23.7646 65.192 24.4157 65.6881 24.4777C65.7852 24.4909 65.8839 24.4839 65.9782 24.4573C66.0724 24.4306 66.1601 24.3848 66.2359 24.3227C66.3599 24.24 66.4013 24.1573 66.4219 24.1677Z" fill="#EB996E"/>
<path d="M75.3415 6.16362C74.5457 3.45578 71.6621 2.11219 69.037 1.36806C65.0372 0.231176 60.7171 -0.264919 56.8103 1.17168C52.9036 2.60828 48.2114 5.13009 48.2114 9.43989C45.9066 9.25386 44.5837 11.2692 43.6742 13.7704C43.0927 15.2942 42.7443 16.8969 42.6407 18.5246C42.3513 24.1677 40.77 31.9604 37.1113 36.0946C35.0443 38.3993 32.1814 39.991 31.0032 42.8642C29.9696 45.355 30.5071 48.3108 29.5459 50.8326C28.6881 53.0547 26.7967 54.636 25.4118 56.5687C24.0009 58.7612 23.1705 61.2764 22.9987 63.878C22.827 66.4796 23.3195 69.0822 24.4299 71.4412C25.5484 73.7396 27.1231 75.7863 29.0581 77.4566C30.9931 79.1268 33.2478 80.3856 35.685 81.1563C40.5127 82.625 45.6608 82.6753 50.5162 81.301C54.1601 80.4297 57.5594 78.7442 60.4587 76.3711C63.4253 73.9485 65.4628 70.5746 66.2258 66.8213C66.9596 62.6045 65.7813 58.3154 64.9028 54.1193C62.1537 40.8591 62.9391 40.1666 66.4118 27.8573C66.4945 27.6403 66.5358 27.4129 66.5978 27.1959C66.6598 26.9788 66.6909 26.8755 66.7322 26.7101C66.8308 26.2235 66.8827 25.7286 66.8872 25.2322C66.38 25.4208 65.8295 25.4607 65.3004 25.3472C64.7712 25.2337 64.2855 24.9715 63.9003 24.5914C63.5142 24.1861 63.245 23.6839 63.1213 23.138C62.9976 22.5922 63.0239 22.0229 63.1975 21.4908C63.4414 20.9088 63.8047 20.3845 64.2641 19.9519C64.7234 19.5193 65.2685 19.1879 65.864 18.9794C67.0112 18.5039 68.2411 18.2559 69.3677 17.7288C71.7551 16.5919 73.4088 14.2355 74.5353 11.7653C75.4615 10.0533 75.7473 8.06731 75.3415 6.16362Z" fill="#263238"/>
<path d="M66.8356 24.4467C67.054 24.7693 67.2343 25.1161 67.373 25.4802C67.6831 26.1313 68.0965 27.0511 68.5512 28.1157L68.6339 28.3121H68.4169L67.3833 28.4051C66.6702 28.4051 66.0708 28.5394 65.368 28.5291C65.3068 28.5153 65.25 28.4863 65.2031 28.4448C65.1561 28.4032 65.1204 28.3504 65.0993 28.2914C65.0685 28.1974 65.0685 28.096 65.0993 28.002C65.1232 27.8627 65.1542 27.7247 65.1923 27.5886L65.3783 26.8548C65.4718 26.3652 65.6173 25.8871 65.8124 25.4285C65.7931 25.9275 65.7204 26.423 65.5953 26.9065L65.4506 27.6402C65.399 27.8883 65.306 28.2707 65.4506 28.2397C65.9674 28.2397 66.7012 28.126 67.3833 28.0847L68.4169 27.9916L68.2825 28.219C67.8381 27.1855 67.466 26.214 67.249 25.5422C67.0586 25.1991 66.9193 24.83 66.8356 24.4467Z" fill="#4CAF4F"/>
<path d="M31.4474 111.439L77.2843 110.043L97.2314 187.909L93.5624 277.227H69.3262L72.2924 189.811L54.5674 135.602L57.2959 280.689L32.8013 281.051L30.2279 144.677C30.1142 140.884 28.8739 132.336 29.339 128.574L31.4474 111.439Z" fill="#263238"/>
<path d="M60.6652 136.708C59.915 136.756 59.1618 136.71 58.4225 136.574C57.0376 136.409 55.1462 136.119 53.0688 135.706C50.9914 135.292 49.1311 134.817 47.7875 134.435C47.0693 134.277 46.3745 134.027 45.7205 133.69C45.7205 133.535 49.0897 134.342 53.2239 135.179C57.358 136.016 60.6859 136.553 60.6652 136.708Z" fill="#455A64"/>
<path d="M93.3144 272.328C93.3144 272.472 87.8264 272.596 81.0568 272.596C74.2872 272.596 68.7888 272.472 68.7888 272.328C68.7888 272.183 74.2769 272.059 81.0568 272.059C87.8367 272.059 93.3144 272.173 93.3144 272.328Z" fill="#455A64"/>
<path d="M57.079 276.916C57.079 277.072 51.746 277.185 45.1728 277.185C38.5995 277.185 33.2769 277.072 33.2769 276.916C33.2769 276.761 38.6099 276.648 45.1728 276.648C51.7356 276.648 57.079 276.772 57.079 276.916Z" fill="#455A64"/>
<path d="M53.9165 276.544C53.7718 276.544 53.131 244.846 52.4799 205.748C51.8288 166.65 51.4464 134.931 51.5807 134.931C51.7151 134.931 52.3765 166.619 53.0173 205.738C53.6581 244.857 54.0715 276.544 53.9165 276.544Z" fill="#455A64"/>
<path d="M90.0588 272.328C90.0475 272.187 90.0475 272.045 90.0588 271.904V270.664C90.0588 269.547 90.1415 267.946 90.2035 265.909C90.3482 261.775 90.5549 255.771 90.8133 248.412C91.3714 233.612 92.1569 213.21 93.0147 190.689C93.0147 190.472 93.0147 190.266 93.0147 190.08V190.152C87.5887 168.448 82.6794 148.749 79.1138 134.497L74.9796 117.64C74.5042 115.666 74.1425 114.126 73.8841 113.051C73.7601 112.544 73.6774 112.152 73.6051 111.852C73.5648 111.718 73.5405 111.579 73.5327 111.439C73.5864 111.569 73.6279 111.704 73.6567 111.842C73.7394 112.131 73.8428 112.524 73.9875 113.02C74.2665 114.053 74.6696 115.624 75.1863 117.588C76.2199 121.577 77.6771 127.324 79.4962 134.404C83.0928 148.646 88.0538 168.293 93.5521 190.028V190.1C93.5521 190.286 93.5521 190.503 93.5521 190.71C92.6323 213.231 91.7951 233.622 91.1853 248.422C90.8649 255.791 90.5962 261.755 90.4102 265.909C90.3068 267.977 90.2242 269.547 90.1725 270.664C90.1725 271.191 90.1105 271.604 90.1001 271.904C90.1017 272.046 90.0878 272.188 90.0588 272.328Z" fill="#455A64"/>
<path d="M82.1523 188.261C80.4115 188.833 78.6181 189.231 76.7987 189.449C74.5662 189.832 72.6645 190.1 71.8067 190.142V189.935C72.0858 190.018 72.2305 190.069 72.2305 190.111C72.2305 190.152 72.0548 190.111 71.7654 190.111H71.1453L71.7654 189.925C72.5715 189.687 74.4732 189.294 76.7056 188.891C78.4961 188.503 80.3205 188.291 82.1523 188.261Z" fill="#455A64"/>
<path d="M81.7287 191.227C80.1166 191.301 78.5011 191.228 76.9021 191.01C75.2877 190.977 73.6794 190.8 72.0962 190.483C75.3262 190.219 78.5775 190.47 81.7287 191.227Z" fill="#455A64"/>
<path opacity="0.2" d="M31.2512 113.082C31.7941 113.779 32.4778 114.354 33.2578 114.769C34.0379 115.184 34.8966 115.429 35.7781 115.49C37.6241 115.709 39.4915 115.674 41.3281 115.387C53.162 114.074 65.6987 112.865 77.2845 110.043C62.288 110.88 46.4441 110.601 31.4476 111.439L31.2926 112.72" fill="black"/>
<g opacity="0.2">
<path d="M46.7024 134.218L55.1566 167.022L54.5675 135.602L46.7024 134.218Z" fill="black"/>
</g>
</svg>
