<svg width="18" height="19" viewBox="0 0 18 19" fill="none" xmlns="http://www.w3.org/2000/svg">
<path fill-rule="evenodd" clip-rule="evenodd" d="M17.0303 1.36859C17.2341 1.57231 17.3031 1.87474 17.2079 2.14668L11.9579 17.1467C11.8563 17.4369 11.5878 17.6358 11.2806 17.6483C10.9733 17.6608 10.6895 17.4845 10.5646 17.2035L7.6818 10.7171L1.1954 7.83427C0.91439 7.70938 0.738092 7.4256 0.750627 7.11834C0.763163 6.81108 0.961991 6.54261 1.25224 6.44102L16.2522 1.19102C16.5242 1.09584 16.8266 1.16486 17.0303 1.36859ZM9.14456 10.315L11.1671 14.8656L14.7064 4.75318L9.14456 10.315ZM13.6457 3.69252L3.53331 7.23187L8.0839 9.25436L13.6457 3.69252Z" fill="white"/>
</svg>
