<svg width="57" height="6" viewBox="0 0 57 6" fill="none" xmlns="http://www.w3.org/2000/svg">
<g opacity="0.2">
<path d="M4.29514 2.58906C4.26464 3.00479 4.11278 3.40242 3.85838 3.73263C3.60398 4.06285 3.25824 4.31112 2.86404 4.44665C2.46984 4.58219 2.04453 4.59902 1.64085 4.49507C1.23717 4.39111 0.872881 4.17096 0.593175 3.86189C0.313469 3.55281 0.130655 3.1684 0.0673907 2.75638C0.00412613 2.34436 0.0631931 1.92284 0.237285 1.54408C0.411376 1.16533 0.692836 0.846021 1.04673 0.625745C1.40062 0.405469 1.81139 0.29392 2.22809 0.304944C2.80388 0.337028 3.34382 0.594843 3.73078 1.02243C4.11774 1.45002 4.32052 2.01293 4.29514 2.58906Z" fill="white"/>
<path d="M10.8787 2.62011C10.899 2.91148 10.8592 3.20389 10.7617 3.47921C10.6641 3.75453 10.511 4.00685 10.3118 4.22045C10.1126 4.43406 9.87155 4.60439 9.60369 4.72085C9.33583 4.83731 9.04687 4.89741 8.75479 4.89741C8.46271 4.89741 8.17375 4.83731 7.90589 4.72085C7.63803 4.60439 7.397 4.43406 7.19778 4.22045C6.99857 4.00685 6.84544 3.75453 6.74792 3.47921C6.65039 3.20389 6.61056 2.91148 6.6309 2.62011C6.61056 2.32873 6.65039 2.03629 6.74792 1.76097C6.84544 1.48565 6.99857 1.23333 7.19778 1.01973C7.397 0.806129 7.63803 0.635797 7.90589 0.519338C8.17375 0.402879 8.46271 0.342773 8.75479 0.342773C9.04687 0.342773 9.33583 0.402879 9.60369 0.519338C9.87155 0.635797 10.1126 0.806129 10.3118 1.01973C10.511 1.23333 10.6641 1.48565 10.7617 1.76097C10.8592 2.03629 10.899 2.32873 10.8787 2.62011Z" fill="white"/>
<path d="M17.4726 2.65107C17.4421 3.0668 17.2903 3.46443 17.0359 3.79464C16.7815 4.12486 16.4357 4.37313 16.0415 4.50866C15.6473 4.6442 15.222 4.66103 14.8183 4.55708C14.4147 4.45312 14.0504 4.23297 13.7707 3.9239C13.491 3.61482 13.3081 3.23042 13.2449 2.8184C13.1816 2.40638 13.2407 1.98485 13.4148 1.6061C13.5889 1.22734 13.8703 0.908032 14.2242 0.687757C14.5781 0.467481 14.9889 0.355932 15.4056 0.366956C15.9804 0.401657 16.5188 0.66023 16.9052 1.08722C17.2916 1.51421 17.4953 2.07564 17.4726 2.65107Z" fill="white"/>
<path d="M24.0561 2.68208C24.0256 3.09781 23.8738 3.49543 23.6194 3.82565C23.365 4.15587 23.0192 4.40413 22.625 4.53967C22.2308 4.6752 21.8055 4.69204 21.4018 4.58808C20.9982 4.48413 20.6339 4.26398 20.3542 3.9549C20.0745 3.64583 19.8916 3.26145 19.8284 2.84943C19.7651 2.43741 19.8242 2.01586 19.9983 1.6371C20.1724 1.25835 20.4538 0.939038 20.8077 0.718762C21.1616 0.498486 21.5724 0.386938 21.9891 0.397962C22.5639 0.432663 23.1023 0.691236 23.4887 1.11823C23.8751 1.54522 24.0788 2.10664 24.0561 2.68208Z" fill="white"/>
<path d="M30.6396 2.70276C30.6111 3.1191 30.4609 3.51789 30.2076 3.84955C29.9543 4.18121 29.6091 4.43111 29.2149 4.5682C28.8208 4.70529 28.395 4.72352 27.9906 4.62062C27.5862 4.51773 27.2209 4.29825 26.9402 3.98946C26.6594 3.68067 26.4757 3.29618 26.4117 2.8838C26.3477 2.47142 26.4063 2.04934 26.5802 1.66999C26.7541 1.29064 27.0357 0.970768 27.3899 0.750135C27.7442 0.529501 28.1554 0.417807 28.5726 0.428987C29.1456 0.463676 29.6823 0.720814 30.0685 1.14556C30.4546 1.57031 30.6595 2.12908 30.6396 2.70276Z" fill="white"/>
<path d="M37.2337 2.73374C37.2055 3.14793 37.0568 3.54483 36.8059 3.87561C36.555 4.20639 36.2129 4.45663 35.8217 4.59549C35.4304 4.73435 35.0071 4.75579 34.6039 4.65719C34.2006 4.55858 33.8349 4.3442 33.5519 4.04047C33.2689 3.73674 33.0808 3.3569 33.0109 2.94768C32.941 2.53846 32.9922 2.11772 33.1583 1.73724C33.3244 1.35676 33.5981 1.03312 33.9458 0.80619C34.2934 0.579259 34.6998 0.458912 35.1149 0.459968C35.6971 0.481519 36.2469 0.732944 36.6441 1.15913C37.0412 1.58532 37.2532 2.15153 37.2337 2.73374Z" fill="white"/>
<path d="M43.8172 2.76473C43.8375 3.0561 43.7977 3.34855 43.7001 3.62387C43.6026 3.89919 43.4495 4.1515 43.2503 4.36511C43.0511 4.57871 42.81 4.74904 42.5422 4.8655C42.2743 4.98196 41.9853 5.04203 41.6933 5.04203C41.4012 5.04203 41.1122 4.98196 40.8443 4.8655C40.5765 4.74904 40.3355 4.57871 40.1363 4.36511C39.937 4.1515 39.7839 3.89919 39.6864 3.62387C39.5889 3.34855 39.549 3.0561 39.5694 2.76473C39.549 2.47336 39.5889 2.18091 39.6864 1.90559C39.7839 1.63027 39.937 1.37796 40.1363 1.16435C40.3355 0.950751 40.5765 0.780451 40.8443 0.663992C41.1122 0.547533 41.4012 0.487427 41.6933 0.487427C41.9853 0.487427 42.2743 0.547533 42.5422 0.663992C42.81 0.780451 43.0511 0.950751 43.2503 1.16435C43.4495 1.37796 43.6026 1.63027 43.7001 1.90559C43.7977 2.18091 43.8375 2.47336 43.8172 2.76473Z" fill="white"/>
<path d="M50.4007 2.79572C50.3724 3.20991 50.2237 3.60684 49.9729 3.93762C49.722 4.2684 49.3799 4.51861 48.9886 4.65747C48.5974 4.79633 48.1741 4.81777 47.7708 4.71917C47.3675 4.62056 47.0019 4.40618 46.7189 4.10245C46.4359 3.79872 46.2478 3.41888 46.1779 3.00966C46.108 2.60044 46.1592 2.1797 46.3253 1.79922C46.4914 1.41874 46.7651 1.0951 47.1127 0.86817C47.4604 0.641239 47.8668 0.520924 48.2819 0.52198C48.8641 0.543531 49.4139 0.794924 49.8111 1.22111C50.2082 1.6473 50.4202 2.21351 50.4007 2.79572Z" fill="white"/>
<path d="M56.9844 2.82675C56.9558 3.24309 56.8056 3.64188 56.5523 3.97354C56.299 4.3052 55.9539 4.5551 55.5597 4.69219C55.1655 4.82929 54.7398 4.84754 54.3353 4.74465C53.9309 4.64175 53.5656 4.42225 53.2849 4.11345C53.0042 3.80466 52.8204 3.42018 52.7564 3.00779C52.6924 2.59541 52.751 2.17333 52.9249 1.79398C53.0989 1.41463 53.3804 1.09476 53.7347 0.874127C54.0889 0.653493 54.5001 0.541831 54.9173 0.553011C55.4903 0.5877 56.0271 0.844806 56.4132 1.26955C56.7993 1.6943 57.0043 2.25307 56.9844 2.82675Z" fill="white"/>
</g>
</svg>
