<svg width="44" height="31" viewBox="0 0 44 31" fill="none" xmlns="http://www.w3.org/2000/svg">
<path d="M23.2261 16.6368L16.5611 28.0517L9.89623 16.6368H23.2261ZM25.0116 15.6166H8.10352L16.5611 30.0707L25.0116 15.6166Z" fill="white"/>
<path d="M34.8136 2.43933L41.4785 13.8542H28.1487L34.8136 2.43933ZM34.8136 0.398926L26.356 14.853H43.2712L34.8136 0.398926Z" fill="white"/>
<path d="M0 0.398926L7.09143 13.1836L14.8406 0.719951L0 0.398926Z" fill="#4CAF4F"/>
<path d="M16.5612 1.51874L23.9997 14.232H9.1084L16.5612 1.51874Z" fill="#4CAF4F"/>
<path d="M25.9151 17.0078L33.3607 30.0707H18.1152L25.6837 17.0078H25.9151Z" fill="#4CAF4F"/>
<path d="M27.5271 16.2158L34.8137 29.0789L42.2014 16.2158H27.5271Z" fill="#4CAF4F"/>
</svg>
