<svg width="48" height="49" viewBox="0 0 48 49" fill="none" xmlns="http://www.w3.org/2000/svg">
<rect y="0.399048" width="48" height="48" rx="8" fill="#F5F7FA"/>
<g clip-path="url(#clip0_22_769)">
<path d="M43.9965 13.8106C43.9965 13.8444 43.9965 13.8866 43.9877 13.912C43.9437 14.2417 43.9437 14.5714 43.9701 14.9095C43.9877 14.994 44.0053 15.0786 44.0758 15.1462C44.1903 15.273 44.3664 15.2476 44.4369 15.0955C44.4722 15.0194 44.4722 14.9433 44.4545 14.8672C44.3664 14.546 44.3488 14.2079 44.34 13.8782C44.34 13.8613 44.34 13.8359 44.34 13.8106C44.4369 13.8021 44.525 13.7936 44.6042 13.7936C44.6659 13.7852 44.7188 13.7767 44.7628 13.7514C44.8949 13.6838 44.8949 13.54 44.754 13.4724C44.7011 13.4471 44.6307 13.4386 44.569 13.4386C44.3488 13.4471 44.1287 13.4471 43.9084 13.4471C43.8292 13.4471 43.7499 13.4555 43.6706 13.464C43.6266 13.4724 43.5737 13.4724 43.5385 13.4978C43.4768 13.5231 43.4417 13.5654 43.4417 13.6246C43.4504 13.6838 43.4768 13.7176 43.5385 13.7429C43.5737 13.7683 43.6178 13.7767 43.6618 13.7767C43.7675 13.7852 43.882 13.8021 43.9965 13.8106ZM46.4186 14.1994C46.4186 14.2079 46.4274 14.2163 46.4274 14.2163C46.4627 14.4446 46.4979 14.6644 46.5243 14.8841C46.5332 14.9602 46.542 15.0279 46.5948 15.087C46.7093 15.2307 46.8855 15.2138 46.9647 15.0617C47 14.9856 47.0087 14.9095 46.9912 14.825C46.9383 14.5714 46.9119 14.3178 46.859 14.0726C46.8238 13.9204 46.7798 13.7767 46.7357 13.6415C46.7093 13.557 46.6477 13.4978 46.542 13.4893C46.4363 13.4724 46.357 13.5231 46.3129 13.5992C46.2601 13.6668 46.2161 13.7345 46.1808 13.8106C46.1192 13.9458 46.0663 14.0811 45.9959 14.2079C45.987 14.2417 45.9782 14.267 45.9606 14.2924C45.9519 14.2755 45.9431 14.267 45.9431 14.267C45.8285 14.0557 45.7228 13.8444 45.6083 13.6415C45.5907 13.6246 45.5819 13.6077 45.5731 13.5908C45.5203 13.5147 45.4586 13.4724 45.3617 13.4724C45.2736 13.4809 45.2031 13.5316 45.1592 13.6077C45.1415 13.6415 45.1415 13.6668 45.1327 13.7007C45.0975 13.9712 45.0534 14.2417 45.0182 14.5122C45.0006 14.6644 44.9918 14.8165 44.9918 14.9687C44.983 15.0025 44.9918 15.0448 45.0094 15.0786C45.027 15.1462 45.0799 15.1885 45.1503 15.1969C45.2384 15.2054 45.3 15.18 45.3265 15.1124C45.3529 15.0617 45.3617 15.0194 45.3705 14.9771C45.4058 14.825 45.4322 14.6813 45.4586 14.5376C45.4762 14.453 45.485 14.3854 45.5115 14.2924C45.5291 14.3262 45.5466 14.3516 45.5643 14.3769C45.6435 14.4784 45.7228 14.5798 45.8197 14.6644C45.9166 14.732 45.9959 14.7235 46.0751 14.6474C46.0928 14.6305 46.1016 14.6221 46.1192 14.6052C46.1985 14.4868 46.2954 14.3685 46.3746 14.2501C46.3922 14.2332 46.401 14.2163 46.4186 14.1994Z" fill="#3A3B7B"/>
<path d="M26.1244 13.9766C26.0632 14.1373 26.0515 14.253 26.0798 14.3492C26.111 14.48 26.192 14.5229 26.302 14.4896C27.3366 14.2441 29.6051 14.941 30.445 15.1352C30.6431 15.176 30.8042 14.9306 30.6691 14.7106C30.4718 14.4975 28.2043 13.5852 27.3391 13.5354C26.9999 13.517 26.3936 13.4336 26.1244 13.9766Z" fill="#3A3B7B"/>
<path d="M34.9904 11.0235C35.1006 11.0845 35.1622 11.1428 35.1927 11.2079C35.238 11.2933 35.2141 11.3524 35.1379 11.3825C34.4541 11.7029 33.5441 13.0819 33.1768 13.5576C33.0877 13.667 32.8823 13.6034 32.8513 13.4235C32.8577 13.22 33.6643 11.7234 34.1145 11.3158C34.2915 11.1566 34.5837 10.8444 34.9904 11.0235Z" fill="#3A3B7B"/>
<path d="M29.5445 10.3446C29.6769 10.2488 29.8146 10.2152 29.8849 10.2775C30.9167 11.1244 31.4638 12.4655 31.8026 13.6933C31.8154 13.7219 31.8162 13.7629 31.806 13.8057C31.8017 13.8423 31.7739 13.881 31.7296 13.9109C31.6824 13.9439 31.6417 13.954 31.6225 13.9255C31.1703 13.3352 28.5875 11.0384 29.5445 10.3446Z" fill="#3A3B7B"/>
<path d="M7.69524 25.0277C7.94253 24.851 8.21137 24.7039 8.49586 24.5897C8.7935 24.5081 9.11075 24.5216 9.39966 24.6283C9.68851 24.7351 9.93338 24.9292 10.0971 25.1814C10.2435 25.4329 10.3008 25.7233 10.2604 26.0088C10.2199 26.2943 10.084 26.5594 9.87289 26.7643C9.70926 26.9304 9.52348 27.0751 9.3205 27.1946C8.41582 27.7556 7.50308 28.2858 6.59039 28.8467C6.40363 28.9871 6.20551 29.1131 5.99793 29.2233C5.68217 29.3744 5.32132 29.4149 4.97776 29.3377C4.6342 29.2606 4.32955 29.0705 4.11648 28.8006C3.95719 28.6095 3.82277 28.4005 3.71616 28.1782C2.8515 26.4339 1.95481 24.6973 1.12217 22.9222C0.737866 22.1538 0.425627 21.2701 0.121393 20.4172C-0.010233 20.1694 -0.0359366 19.8821 0.0497553 19.6163C0.135447 19.3506 0.325774 19.1274 0.580249 18.9943C0.834727 18.8612 1.13327 18.8286 1.4124 18.9035C1.69152 18.9783 1.92921 19.1548 2.0749 19.3952C2.52271 19.9664 2.91911 20.5731 3.25981 21.2087C4.12448 22.7455 4.94912 24.2823 5.78176 25.773C5.83024 25.8554 5.8837 25.9349 5.94188 26.0112C6.56859 25.7583 7.15803 25.4277 7.69524 25.0277Z" fill="#3A3B7B"/>
<path d="M16.6355 24.4916C14.658 26.7123 11.3434 26.1513 9.67813 23.2928C8.4932 21.2642 8.28505 17.9139 10.8631 15.8008C11.4136 15.3584 12.0718 15.057 12.7765 14.9248C13.6405 14.8059 14.5216 14.9522 15.2937 15.3428C16.0658 15.7333 16.6896 16.3482 17.0759 17.0994C18.4849 19.5584 18.2848 22.6935 16.6355 24.4916ZM15.8349 19.3124C15.6248 18.7082 15.2033 18.1923 14.6419 17.8524C14.3243 17.6351 13.9383 17.5295 13.549 17.5533C13.1596 17.5771 12.7907 17.7288 12.5043 17.9831C11.3595 18.959 11.1192 21.2719 11.9519 22.6474C12.058 22.8717 12.2139 23.071 12.4086 23.2314C12.6034 23.3918 12.8324 23.5095 13.0795 23.576C13.3265 23.6427 13.5858 23.6566 13.8391 23.617C14.0924 23.5774 14.3336 23.4851 14.5459 23.3466C15.1665 22.8848 15.6218 22.2489 15.8485 21.5273C16.0752 20.8057 16.0621 20.0342 15.8109 19.3202L15.8349 19.3124Z" fill="#3A3B7B"/>
<path d="M24.7055 20.2806C24.5031 20.3224 24.294 20.3249 24.0904 20.288C23.887 20.251 23.6932 20.1754 23.5207 20.0655C23.3697 19.9826 23.2397 19.8686 23.14 19.7318C23.0405 19.5949 22.9737 19.4385 22.9446 19.2739C22.9155 19.1093 22.9248 18.9406 22.9718 18.7798C23.0188 18.6191 23.1024 18.4703 23.2164 18.3442C23.4152 18.0909 23.6973 17.9095 24.0171 17.8294C24.8518 17.5969 25.7112 17.4551 26.579 17.4068C26.7697 17.3855 26.9629 17.401 27.1472 17.4524C27.3316 17.5038 27.5033 17.5899 27.6525 17.7059C27.8016 17.8218 27.9252 17.9653 28.0158 18.1277C28.1064 18.2901 28.1623 18.4682 28.1802 18.6516C28.4304 19.5526 28.4578 20.4973 28.2603 21.4103C27.5398 24.3609 25.0578 25.3752 22.2717 24.4301C21.4896 24.1774 20.8039 23.7065 20.3022 23.0777C19.633 22.3204 19.1586 21.4229 18.9171 20.4574C18.7214 19.5976 18.7428 18.7055 18.9797 17.8553C19.2164 17.0052 19.6616 16.2217 20.2781 15.5703C20.8632 14.8623 21.6226 14.3051 22.4879 13.9489C23.0346 13.6597 23.6744 13.5774 24.2813 13.7184C24.4189 13.755 24.5439 13.8262 24.6432 13.9248C24.7425 14.0233 24.8125 14.1456 24.846 14.2788C24.8795 14.4121 24.8752 14.5515 24.8336 14.6827C24.792 14.8139 24.7147 14.9319 24.6095 15.0247C24.4096 15.1984 24.1924 15.3528 23.961 15.4858C23.2492 15.9208 22.6298 16.4814 22.1356 17.1378C21.8116 17.5626 21.5885 18.0504 21.482 18.5668C21.3755 19.0832 21.3881 19.6158 21.5191 20.127C21.7007 20.8241 22.1036 21.4497 22.672 21.9174C24.4333 23.4542 26.7231 21.9711 26.3228 19.8734C25.7384 20.0117 25.226 20.1577 24.7055 20.2806Z" fill="#3A3B7B"/>
<path d="M35.4659 24.6145C32.8639 26.1514 29.9016 24.6145 29.2531 21.3872C28.7807 19.082 29.6774 15.8546 32.8159 14.6251C33.4836 14.3692 34.2079 14.2793 34.9215 14.3639C35.7788 14.5145 36.5654 14.9196 37.17 15.5221C37.7747 16.1245 38.1672 16.8939 38.2921 17.7219C38.8205 20.4651 37.6196 23.3927 35.4659 24.6145ZM36.3706 19.4431C36.3698 18.8047 36.1346 18.187 35.7061 17.6988C35.4771 17.3968 35.146 17.1804 34.7693 17.0865C34.3926 16.9926 33.9937 17.027 33.6405 17.184C32.2314 17.7679 31.2386 19.8887 31.5989 21.4487C31.6265 21.6935 31.7093 21.9296 31.8418 22.1404C31.9743 22.3512 32.1531 22.5318 32.3659 22.6694C32.5786 22.8069 32.8201 22.8983 33.0735 22.937C33.3268 22.9756 33.586 22.9607 33.8326 22.8933C34.5775 22.6436 35.2224 22.1768 35.6773 21.5583C36.1323 20.9397 36.3747 20.2002 36.3706 19.4431Z" fill="#3A3B7B"/>
<path d="M40.9234 25.26C40.8841 25.5412 40.7301 25.796 40.4951 25.9682C40.2601 26.1403 39.9635 26.2159 39.6705 26.1782C39.3775 26.1405 39.112 25.9926 38.9326 25.7671C38.7532 25.5416 38.6745 25.2569 38.7137 24.9757C38.753 24.6944 38.9071 24.4397 39.142 24.2675C39.377 24.0952 39.6737 24.0197 39.9667 24.0574C40.2597 24.0951 40.5251 24.243 40.7046 24.4685C40.884 24.694 40.9628 24.9788 40.9234 25.26ZM40.2269 14.8941C40.3792 14.6709 40.6025 14.5009 40.8637 14.4095C41.1248 14.3181 41.4098 14.3102 41.676 14.3869C41.9467 14.4519 42.1858 14.6042 42.3534 14.8182C42.521 15.0322 42.6069 15.295 42.5968 15.5626C42.5614 15.9918 42.4946 16.418 42.3966 16.8381C42.1324 18.2597 41.8762 19.6813 41.596 21.0875C41.4679 21.6484 41.2998 22.1863 41.1156 22.7549C41.0515 22.9327 40.9445 23.0933 40.8034 23.2237C40.7156 23.3217 40.6035 23.3969 40.4775 23.4424C40.3514 23.4878 40.2154 23.502 40.0821 23.4836C39.9488 23.4652 39.8225 23.4149 39.7148 23.3372C39.6072 23.2595 39.5217 23.157 39.4664 23.0393C39.3711 22.8279 39.3194 22.6009 39.3142 22.3707C39.3142 21.4179 39.3142 20.4574 39.3783 19.4968C39.4871 18.1261 39.7011 16.7648 40.0187 15.4243C40.0561 15.2447 40.1266 15.0729 40.2269 14.9171V14.8941Z" fill="#3A3B7B"/>
<path fill-rule="evenodd" clip-rule="evenodd" d="M4.31263 31.4348C4.2181 31.6374 4.19218 31.8632 4.23837 32.0805C4.2691 32.3669 4.3366 32.6487 4.43933 32.9193C4.56759 33.2507 4.71111 33.5784 4.88807 33.9823C4.92876 34.0752 4.97129 34.1722 5.01579 34.2743C5.25443 34.8215 5.55386 35.5208 5.95326 36.5328C6.06631 36.8203 6.1667 37.1102 6.26779 37.402C6.30862 37.5199 6.34961 37.6383 6.39156 37.7568C6.54193 38.1784 6.80067 38.5571 7.14364 38.8572C7.28927 39.0222 7.48244 39.1424 7.69904 39.2025C7.91988 39.2638 8.15474 39.2599 8.37323 39.1914C8.59171 39.1228 8.7836 38.9927 8.924 38.818C9.06164 38.6467 9.14349 38.4402 9.1594 38.2246C9.2487 37.8045 9.21822 37.3689 9.07104 36.9639C8.83745 36.2914 8.57136 35.6179 8.26452 34.9592L8.26311 34.9563C7.75833 33.9258 7.24523 32.9024 6.70784 31.8785L6.70382 31.8713C6.5465 31.6046 6.34206 31.3661 6.09967 31.1667C5.94232 30.9887 5.72526 30.8686 5.48556 30.8272C5.24076 30.785 4.98827 30.8275 4.77319 30.9474C4.56972 31.0589 4.40843 31.2296 4.31263 31.4348Z" fill="#3A3B7B"/>
<path fill-rule="evenodd" clip-rule="evenodd" d="M12.0224 28.8972C11.2309 28.7005 10.4043 28.6718 9.60018 28.8132C8.97737 28.8721 8.36482 29.01 7.93947 29.2831C7.72314 29.4221 7.54823 29.6006 7.45094 29.8274C7.35311 30.0556 7.34063 30.3164 7.42079 30.6071C7.56717 31.1395 7.75725 31.6571 7.94666 32.1731L7.97734 32.2567L7.97808 32.2586C8.54839 33.7576 9.12414 35.2516 9.70513 36.7404C9.77288 36.975 9.86869 37.2014 9.99062 37.4148L9.9929 37.4188C10.154 37.684 10.3606 37.9212 10.604 38.1205C10.7257 38.23 10.8762 38.3058 11.0395 38.3397C11.2043 38.3738 11.3757 38.3639 11.535 38.3109C11.6944 38.258 11.8356 38.1641 11.9431 38.0394C12.049 37.9167 12.1182 37.769 12.1437 37.6117C12.2487 37.1845 12.2151 36.7366 12.0472 36.3283C11.9948 36.1908 11.9537 36.0504 11.9104 35.9025C11.896 35.8532 11.8814 35.8031 11.8659 35.752C13.1958 35.2531 14.6109 34.5822 15.1085 33.0215C15.3033 32.4821 15.3195 31.8981 15.1549 31.3495C14.9901 30.8003 14.6521 30.3135 14.1873 29.9561C13.5548 29.4558 12.8159 29.0944 12.0224 28.8972ZM9.82847 30.8115C9.85466 30.8043 9.88104 30.7976 9.9075 30.7913C10.7733 30.6607 11.6591 30.8347 12.4019 31.2813C12.7292 31.4998 12.8633 31.7426 12.8863 31.9761C12.9101 32.2166 12.8189 32.4773 12.6359 32.7278C12.2901 33.201 11.6589 33.5798 11.0888 33.6504C10.6732 32.7317 10.2511 31.7759 9.82847 30.8115Z" fill="#3A3B7B"/>
<path d="M17.2991 27.2157C18.2417 26.7979 19.4092 26.7257 20.3228 27.0194C20.5529 27.0838 20.7525 27.2229 20.8876 27.4131C21.0217 27.602 21.0836 27.8297 21.0629 28.0574C21.0616 28.2052 21.0238 28.3505 20.9527 28.4817C20.8803 28.6152 20.7755 28.7301 20.6471 28.8165C20.5187 28.9029 20.3706 28.9585 20.2151 28.9783C20.0596 28.9982 19.9015 28.9819 19.754 28.9307L19.7428 28.9268L19.7322 28.9215C19.6568 28.8836 19.5766 28.855 19.4937 28.8364L19.4884 28.8353C18.8457 28.6715 18.2395 28.9429 18.0181 29.2765C17.9125 29.4355 17.8994 29.5961 17.9873 29.7422C18.0815 29.8986 18.3126 30.0741 18.7801 30.1992C18.9087 30.233 19.0405 30.2657 19.1741 30.299C19.5438 30.3908 19.928 30.4863 20.2995 30.6185L20.3009 30.6191C22.0148 31.2449 22.653 32.5412 22.4345 33.7604C22.2184 34.966 21.1693 36.0633 19.5916 36.3221C19.0176 36.4442 18.4201 36.4205 17.8585 36.2531C17.2954 36.0852 16.7879 35.779 16.3863 35.3645L16.3758 35.3537C16.2491 35.1976 16.1638 35.0142 16.126 34.8195C16.0912 34.6439 16.1095 34.4624 16.1787 34.2963C16.2474 34.1313 16.3637 33.9885 16.5138 33.8844C16.6723 33.7664 16.8634 33.6956 17.0634 33.6809C17.2628 33.6662 17.4623 33.7078 17.6373 33.8004C17.8121 33.8815 17.9748 33.9849 18.1207 34.1079L18.1235 34.1101C18.3817 34.3368 18.6941 34.3959 18.9937 34.3412C19.2977 34.2857 19.5835 34.113 19.7673 33.884C19.95 33.6564 20.0233 33.3861 19.9363 33.1236C19.8487 32.8593 19.5854 32.5631 19.007 32.3154C18.8558 32.2538 18.699 32.2041 18.5359 32.1557C18.492 32.1427 18.4472 32.1297 18.402 32.1165C18.2814 32.0814 18.1573 32.0452 18.0357 32.0053C17.9519 31.9779 17.8687 31.952 17.7864 31.9262C17.5614 31.8559 17.3421 31.7873 17.131 31.6954C16.6715 31.5452 16.2746 31.2569 15.9992 30.8732C15.7227 30.4878 15.5836 30.0271 15.6025 29.5596C15.604 28.4205 16.3515 27.6358 17.2991 27.2157Z" fill="#3A3B7B"/>
<path d="M29.2486 27.0943C29.0659 27.0086 28.8638 26.968 28.6606 26.976C28.4574 26.984 28.2594 27.0404 28.0846 27.1403C27.9109 27.2394 27.7655 27.3782 27.6613 27.5444C27.5658 27.6843 27.4996 27.8408 27.4667 28.0051C27.4337 28.1692 27.4345 28.338 27.4689 28.5018C27.503 28.7123 27.5407 28.917 27.578 29.1189C27.6397 29.453 27.6997 29.7795 27.7393 30.1125L27.7408 30.1209C27.831 30.6431 27.8782 31.1713 27.8824 31.7005L27.8828 31.708C27.9136 32.2796 27.7107 32.84 27.3176 33.2704L27.3114 33.2781C27.1835 33.4354 27.0124 33.5555 26.8174 33.6249C26.6224 33.6943 26.4112 33.7102 26.2073 33.6709C26.0033 33.6317 25.8149 33.5387 25.6629 33.4025C25.5109 33.2663 25.4012 33.0916 25.3465 32.8991C25.2297 32.4933 25.162 32.0759 25.1449 31.6552L25.3444 28.6061C25.3474 28.5663 25.3507 28.5254 25.3541 28.4842C25.3617 28.3916 25.3695 28.2972 25.3727 28.2092C25.3774 28.0798 25.3734 27.9467 25.342 27.8206C25.3098 27.6919 25.2487 27.5693 25.1402 27.465C25.0327 27.3617 24.8877 27.2855 24.7052 27.2337C24.3752 27.142 24.0962 27.1449 23.8636 27.2396C23.631 27.3343 23.4716 27.5102 23.3588 27.7133C23.2469 27.9147 23.175 28.1532 23.1206 28.392C23.0802 28.5692 23.0478 28.7553 23.017 28.9324C23.0063 28.9934 22.9959 29.0533 22.9853 29.1115L22.9851 29.1133C22.8202 30.0845 22.7711 31.0706 22.8388 32.0525C22.8514 32.5832 22.9667 33.107 23.1789 33.5971C23.4182 34.2296 23.8518 34.7776 24.4223 35.1687C24.994 35.5607 25.6762 35.7767 26.3787 35.7881C27.0811 35.7995 27.7706 35.6058 28.3558 35.2327C28.9401 34.8601 29.3929 34.3261 29.6544 33.7013C30.0201 32.9055 30.1919 32.04 30.1564 31.1707C30.1349 30.5362 30.0989 29.8967 30.0631 29.2605C30.0456 28.9484 30.028 28.637 30.0123 28.3275C30.0044 28.0171 29.8978 27.7165 29.7067 27.466C29.5884 27.3076 29.4311 27.1799 29.2486 27.0943Z" fill="#3A3B7B"/>
<path d="M35.7175 31.8754C35.699 31.898 35.6794 31.9214 35.659 31.9458C35.5104 31.1227 35.3726 30.2999 35.2346 29.4758C35.1851 29.1801 35.1354 28.8832 35.0853 28.5872L35.0797 28.5541L35.0614 28.5256C35.027 28.4719 35.0236 28.4192 35.0236 28.3069V28.2939L35.0215 28.2811C34.9842 28.0491 34.8748 27.8333 34.7079 27.6618C34.5413 27.4908 34.3251 27.3717 34.0872 27.3201C33.8497 27.2638 33.6001 27.2762 33.3699 27.3557C33.1403 27.435 32.9401 27.5775 32.7944 27.7653C32.6733 27.9095 32.574 28.0694 32.4996 28.2402C32.3307 28.6082 32.1604 28.9772 31.9896 29.3472L31.9866 29.3535C31.5602 30.2771 31.1309 31.2069 30.7141 32.144L30.7128 32.147C30.4569 32.7547 30.2457 33.3949 30.0352 34.0332C29.9932 34.1606 29.9511 34.2879 29.9088 34.4149C29.8328 34.6163 29.7995 34.8303 29.8109 35.0441C29.7971 35.2356 29.8448 35.4266 29.9478 35.5913C30.0528 35.7594 30.2102 35.8916 30.3976 35.9694C30.5962 36.053 30.8182 36.0707 31.0286 36.0199C31.2385 35.969 31.4248 35.8528 31.5584 35.6893C31.7289 35.488 31.8756 35.2684 31.9953 35.0357C32.3484 34.3425 32.6859 33.6408 33.0218 32.9422C33.1518 32.6719 33.2781 32.4299 33.4217 32.1664C33.4316 32.1988 33.4417 32.2305 33.4521 32.2623C33.6027 32.8987 33.8569 33.5082 34.2053 34.0686C34.2712 34.1873 34.3631 34.291 34.4745 34.3727C34.5873 34.4553 34.7175 34.5133 34.856 34.5428C34.9946 34.5722 35.1381 34.5724 35.2767 34.5432C35.4151 34.514 35.5457 34.456 35.6585 34.3737L35.8819 34.2132L37.6158 32.8115L37.5132 33.4387C37.3725 34.3007 37.2328 35.1555 37.0844 36.0106C36.9874 36.3895 36.9875 36.7854 37.0849 37.1642C37.127 37.3775 37.2344 37.5737 37.3934 37.7281C37.5538 37.8837 37.7591 37.9894 37.9828 38.0316C38.2065 38.0737 38.4383 38.0504 38.648 37.9645C38.8547 37.8799 39.0305 37.7385 39.1533 37.5582C39.4392 37.2178 39.6171 36.8057 39.666 36.3709C39.7396 35.7569 39.8227 35.1345 39.9059 34.5123C40.0017 33.7952 40.0976 33.0782 40.1785 32.375L40.1787 32.3728C40.2566 31.6031 40.2943 30.8302 40.2917 30.0568C40.3087 29.8124 40.2453 29.5689 40.1102 29.3609C39.9747 29.1521 39.7739 28.9897 39.5366 28.8969C39.2898 28.7892 39.0135 28.7604 38.7484 28.8148C38.485 28.8689 38.2466 29.0021 38.0677 29.1952C37.7479 29.479 37.4479 29.7828 37.1696 30.1045L37.1677 30.1067C36.8639 30.47 36.5621 30.8405 36.2624 31.2086C36.0801 31.4324 35.8983 31.6556 35.7175 31.8754Z" fill="#3A3B7B"/>
</g>
<defs>
<clipPath id="clip0_22_769">
<rect width="47" height="29" fill="white" transform="translate(0 10.2458)"/>
</clipPath>
</defs>
</svg>
