<svg width="138" height="26" viewBox="0 0 138 26" fill="none" xmlns="http://www.w3.org/2000/svg">
<path d="M21.2197 0.46228V25.6383H16.6222L5.66912 9.79265H5.48473V25.6383H0.161865V0.46228H4.8332L15.7002 16.2956H15.9215V0.46228H21.2197Z" fill="white"/>
<path d="M34.1243 26.0071C32.182 26.0071 30.5102 25.6137 29.1088 24.827C27.7156 24.032 26.642 22.9093 25.888 21.4587C25.134 19.9999 24.757 18.2748 24.757 16.2833C24.757 14.3411 25.134 12.6364 25.888 11.1695C26.642 9.70251 27.7033 8.55926 29.0719 7.73972C30.4487 6.92019 32.0632 6.51043 33.9153 6.51043C35.161 6.51043 36.3206 6.71121 37.3942 7.11278C38.476 7.50616 39.4185 8.10032 40.2216 8.89527C41.033 9.69021 41.664 10.69 42.1147 11.8948C42.5655 13.0913 42.7908 14.4927 42.7908 16.099V17.5372H26.8469V14.2919H37.8614C37.8614 13.5379 37.6975 12.87 37.3696 12.2881C37.0418 11.7063 36.587 11.2514 36.0051 10.9236C35.4315 10.5876 34.7635 10.4196 34.0014 10.4196C33.2064 10.4196 32.5016 10.604 31.887 10.9728C31.2805 11.3334 30.8052 11.821 30.461 12.4356C30.1168 13.0421 29.9406 13.7182 29.9324 14.464V17.5495C29.9324 18.4838 30.1045 19.291 30.4487 19.9712C30.8011 20.6515 31.2969 21.176 31.9361 21.5447C32.5754 21.9135 33.3335 22.0979 34.2104 22.0979C34.7922 22.0979 35.3249 22.016 35.8084 21.8521C36.292 21.6882 36.7058 21.4423 37.05 21.1145C37.3942 20.7867 37.6565 20.3851 37.8368 19.9098L42.6802 20.2294C42.4344 21.3931 41.9303 22.4094 41.1682 23.2781C40.4142 24.1386 39.439 24.8106 38.2424 25.2941C37.0541 25.7694 35.6814 26.0071 34.1243 26.0071Z" fill="white"/>
<path d="M50.2465 6.75629L53.7132 13.3576L57.2658 6.75629H62.6379L57.1675 16.1973L62.7854 25.6383H57.4379L53.7132 19.1107L50.0499 25.6383H44.6409L50.2465 16.1973L44.8376 6.75629H50.2465Z" fill="white"/>
<path d="M73.6032 26.0071C71.6691 26.0071 70.0055 25.5973 68.6123 24.7778C67.2272 23.9501 66.1619 22.8027 65.4161 21.3358C64.6785 19.8688 64.3097 18.1806 64.3097 16.2711C64.3097 14.337 64.6826 12.6405 65.4284 11.1818C66.1823 9.7148 67.2518 8.57155 68.6368 7.75202C70.0219 6.92429 71.6691 6.51043 73.5786 6.51043C75.2259 6.51043 76.6683 6.80956 77.9057 7.40781C79.1432 8.00607 80.1226 8.84609 80.8438 9.92788C81.565 11.0097 81.9624 12.2799 82.0362 13.7387H77.0944C76.9551 12.7962 76.5863 12.0382 75.988 11.4645C75.398 10.8826 74.6235 10.5917 73.6647 10.5917C72.8533 10.5917 72.1444 10.813 71.538 11.2555C70.9397 11.6899 70.4726 12.325 70.1366 13.1609C69.8006 13.9969 69.6326 15.009 69.6326 16.1973C69.6326 17.402 69.7965 18.4264 70.1243 19.2705C70.4603 20.1147 70.9315 20.758 71.538 21.2005C72.1444 21.6431 72.8533 21.8644 73.6647 21.8644C74.2629 21.8644 74.7997 21.7414 75.2751 21.4956C75.7586 21.2497 76.156 20.8932 76.4675 20.4261C76.7871 19.9508 76.9961 19.3812 77.0944 18.7174H82.0362C81.9542 20.1597 81.5609 21.43 80.8561 22.5282C80.1595 23.6182 79.1965 24.4705 77.9672 25.0851C76.7379 25.6998 75.2832 26.0071 73.6032 26.0071Z" fill="white"/>
<path d="M93.9942 26.0071C92.0519 26.0071 90.3801 25.6137 88.9786 24.827C87.5854 24.032 86.5119 22.9093 85.7579 21.4587C85.0039 19.9999 84.6269 18.2748 84.6269 16.2833C84.6269 14.3411 85.0039 12.6364 85.7579 11.1695C86.5119 9.70251 87.5732 8.55926 88.9418 7.73972C90.3186 6.92019 91.9331 6.51043 93.7852 6.51043C95.0309 6.51043 96.1905 6.71121 97.2641 7.11278C98.3459 7.50616 99.2884 8.10032 100.092 8.89527C100.903 9.69021 101.534 10.69 101.985 11.8948C102.435 13.0913 102.661 14.4927 102.661 16.099V17.5372H86.7167V14.2919H97.7312C97.7312 13.5379 97.5673 12.87 97.2395 12.2881C96.9117 11.7063 96.4569 11.2514 95.875 10.9236C95.3013 10.5876 94.6334 10.4196 93.8713 10.4196C93.0763 10.4196 92.3715 10.604 91.7569 10.9728C91.1504 11.3334 90.6751 11.821 90.3309 12.4356C89.9867 13.0421 89.8105 13.7182 89.8023 14.464V17.5495C89.8023 18.4838 89.9744 19.291 90.3186 19.9712C90.671 20.6515 91.1668 21.176 91.806 21.5447C92.4453 21.9135 93.2033 22.0979 94.0802 22.0979C94.6621 22.0979 95.1948 22.016 95.6783 21.8521C96.1618 21.6882 96.5757 21.4423 96.9199 21.1145C97.2641 20.7867 97.5264 20.3851 97.7067 19.9098L102.55 20.2294C102.304 21.3931 101.8 22.4094 101.038 23.2781C100.284 24.1386 99.3089 24.8106 98.1123 25.2941C96.924 25.7694 95.5513 26.0071 93.9942 26.0071Z" fill="white"/>
<path d="M111.315 14.7221V25.6383H106.078V6.75629H111.069V10.0877H111.29C111.708 8.98951 112.409 8.12081 113.393 7.48157C114.376 6.83414 115.568 6.51043 116.97 6.51043C118.281 6.51043 119.424 6.79726 120.4 7.37094C121.375 7.94461 122.133 8.76414 122.674 9.82953C123.215 10.8867 123.485 12.1488 123.485 13.6158V25.6383H118.248V14.55C118.256 13.3945 117.961 12.493 117.363 11.8456C116.765 11.19 115.941 10.8621 114.892 10.8621C114.187 10.8621 113.565 11.0138 113.024 11.317C112.491 11.6202 112.073 12.0628 111.77 12.6446C111.475 13.2183 111.323 13.9108 111.315 14.7221Z" fill="white"/>
<path d="M137.656 6.75629V10.69H126.285V6.75629H137.656ZM128.866 2.23247H134.103V19.836C134.103 20.3195 134.177 20.6965 134.324 20.967C134.472 21.2292 134.677 21.4136 134.939 21.5202C135.209 21.6267 135.521 21.68 135.873 21.68C136.119 21.68 136.365 21.6595 136.611 21.6185C136.857 21.5693 137.045 21.5324 137.176 21.5079L138 25.4047C137.738 25.4867 137.369 25.5809 136.894 25.6875C136.418 25.8022 135.841 25.8719 135.16 25.8965C133.898 25.9456 132.792 25.7776 131.841 25.3924C130.899 25.0073 130.165 24.409 129.641 23.5977C129.116 22.7863 128.858 21.7619 128.866 20.5244V2.23247Z" fill="white"/>
</svg>
