<svg width="87" height="104" viewBox="0 0 87 104" fill="none" xmlns="http://www.w3.org/2000/svg">
<path d="M60.986 22.4893L55.6634 24.391L53.3793 17.4354C49.1831 4.6093 35.8093 -2.20164 23.5207 2.12884C11.2321 6.45931 4.68985 20.5256 8.88596 33.3517L11.17 40.3073L5.82673 42.2193C3.78922 43.0096 2.13463 44.5547 1.20687 46.5334C0.279112 48.5121 0.149551 50.7722 0.845129 52.844L15.6555 98.1021C15.963 99.1277 16.4734 100.081 17.1566 100.905C17.8397 101.73 18.6816 102.409 19.6322 102.901C20.5828 103.394 21.6227 103.69 22.6902 103.773C23.7577 103.856 24.8309 103.724 25.8461 103.383L81.0054 83.6534C83.0699 82.8645 84.7479 81.3057 85.6866 79.3049C86.6253 77.3042 86.7515 75.0173 86.0387 72.9254L71.2179 27.6673C70.9025 26.6446 70.3843 25.6958 69.6942 24.8778C69.0042 24.0597 68.1564 23.389 67.2014 22.9058C66.2465 22.4225 65.204 22.1366 64.1361 22.065C63.0682 21.9935 61.9969 22.1378 60.986 22.4893ZM18.9422 29.724C17.8107 26.389 18.0139 22.7456 19.5089 19.557C21.004 16.3685 23.675 13.8822 26.9623 12.6191C28.5856 12.0637 30.3041 11.841 32.0153 11.9643C33.7265 12.0875 35.3954 12.5542 36.9223 13.3365C38.4492 14.1187 39.8029 15.2006 40.9026 16.5174C42.0023 17.8342 42.8255 19.3591 43.3231 21.001L45.5968 27.9567L21.2159 36.6796L18.9422 29.724ZM49.9479 69.8868L53.7307 81.4417C53.8002 81.6733 53.7777 81.9229 53.668 82.1385C53.5583 82.354 53.3698 82.519 53.1416 82.5992L47.8396 84.4906C47.6286 84.5491 47.4031 84.5236 47.2104 84.4196C47.0178 84.3155 46.8729 84.141 46.8061 83.9324L42.9923 72.4293C40.8895 72.3147 38.8718 71.5605 37.2094 70.2675C35.547 68.9745 34.3193 67.2046 33.6906 65.1946C32.7917 62.5374 32.9557 59.6354 34.1482 57.0963C35.3407 54.5572 37.4692 52.5779 40.0881 51.5727C41.3812 51.1309 42.75 50.954 44.1129 51.0524C45.4758 51.1509 46.805 51.5227 48.0212 52.1457C49.2373 52.7688 50.3156 53.6303 51.1918 54.6789C52.0679 55.7275 52.724 56.9418 53.1209 58.2493C53.7859 60.2911 53.8409 62.4825 53.2791 64.5551C52.7174 66.6276 51.5633 68.4913 49.9583 69.9178L49.9479 69.8868Z" fill="#4CAF4F"/>
<path d="M55.4257 24.267C55.4257 24.4117 45.5555 28.122 33.2772 32.5352C20.9989 36.9484 10.984 40.4933 10.9323 40.39C10.8807 40.2866 20.8025 36.5453 33.0911 32.1218C45.3798 27.6983 55.374 24.1326 55.4257 24.267Z" fill="#263238"/>
<path d="M67.1458 26.1687C67.1914 26.2584 67.2294 26.3517 67.2595 26.4477C67.3422 26.6545 67.4352 26.9232 67.5592 27.2539C67.8279 28.0084 68.2 29.0522 68.6651 30.3545L72.6339 41.9093C74.2875 46.8082 76.2615 52.6166 78.4526 59.0658C79.4861 62.3008 80.7057 65.6701 81.8426 69.2151C82.4511 71.0419 82.7139 72.9661 82.6177 74.8891C82.5301 75.8893 82.2456 76.8622 81.7806 77.752C81.2839 78.6388 80.6206 79.4214 79.8272 80.0568C78.2304 81.2223 76.4581 82.126 74.5769 82.7336L69.2542 84.6456L59.1773 88.2526L42.1138 94.3298L30.59 98.3812L27.4894 99.4147L26.6626 99.6834C26.5742 99.7227 26.4799 99.7472 26.3835 99.7558C26.3835 99.7558 26.4662 99.7558 26.6419 99.6318L27.4481 99.3114L30.5487 98.1435L42.0105 93.9267L59.043 87.7255L69.0992 84.0875L74.4219 82.1652C76.2496 81.5822 77.9705 80.7061 79.5171 79.571C80.2554 78.9814 80.873 78.255 81.3362 77.4316C81.7738 76.6087 82.0377 75.7046 82.1113 74.7754C82.2065 72.9225 81.9541 71.0682 81.3672 69.3081C80.251 65.7941 79.0727 62.3938 78.0082 59.1589C75.8585 52.6993 73.8741 46.8702 72.3031 41.9713C70.7322 37.0724 69.4092 33.1347 68.4997 30.3648C68.0657 29.0109 67.7349 27.9567 67.4662 27.1919L67.2182 26.3651C67.187 26.3024 67.1627 26.2366 67.1458 26.1687Z" fill="#263238"/>
<path d="M38.0418 11.9163C38.0418 11.9163 37.4941 11.6476 36.4812 11.2342C35.0375 10.6794 33.5106 10.372 31.9647 10.3247C29.6733 10.2461 27.393 10.6767 25.2881 11.5856C22.7285 12.7172 20.5398 14.5477 18.9733 16.8669C17.3963 19.1794 16.5501 21.9123 16.5445 24.7114C16.566 27.0055 16.914 29.2849 17.578 31.4809C18.1155 33.362 18.6735 34.8606 19.0456 35.9044C19.2651 36.4347 19.4448 36.9805 19.5831 37.5374C19.2895 37.0417 19.0437 36.5191 18.8492 35.9768C18.4255 34.9433 17.8157 33.4757 17.2163 31.5843C16.4805 29.3652 16.0799 27.0487 16.0277 24.7114C16.0002 21.8065 16.8661 18.9635 18.5082 16.5672C20.1294 14.1633 22.4075 12.2762 25.0711 11.1308C27.2416 10.217 29.5931 9.81391 31.944 9.9526C33.5235 10.0331 35.075 10.4008 36.5226 11.0378C36.9096 11.2163 37.2827 11.4236 37.6388 11.6579C37.7858 11.7225 37.9218 11.8097 38.0418 11.9163Z" fill="#263238"/>
<path d="M38.5171 52.3583C38.6821 52.2583 38.8549 52.1719 39.0339 52.0999C39.5512 51.8664 40.0871 51.6763 40.6358 51.5314C41.507 51.2743 42.4055 51.1217 43.3127 51.0767C44.5466 51.0104 45.781 51.1968 46.9404 51.6245C49.5862 52.5546 52.015 55.2521 53.2138 58.8591C53.7888 60.7948 53.7888 62.8559 53.2138 64.7916C52.5763 66.8925 51.4337 68.8052 49.8859 70.3623L49.9479 70.0832C51.3225 73.8556 52.8211 77.9484 54.3714 82.2168L54.4644 82.4752L54.2061 82.5682L51.8393 83.3537L46.6716 85.0797L46.4133 85.1624L46.3306 84.904C44.9146 80.6252 43.3643 76.6358 42.1965 72.7187L42.4238 72.8944C40.4033 72.7266 38.4768 71.9682 36.8841 70.7137C35.4431 69.6038 34.2616 68.193 33.4218 66.5796C32.6641 65.1488 32.2869 63.5473 32.3263 61.9287C32.3741 60.2745 32.7871 58.6513 33.5358 57.1754C34.2845 55.6996 35.3502 54.4075 36.6568 53.3918C37.1946 52.9552 37.798 52.6064 38.4448 52.3583C37.861 52.7046 37.2952 53.0806 36.7498 53.4848C35.3146 54.699 34.215 56.2613 33.5562 58.022C32.9907 59.3497 32.7262 60.7861 32.7816 62.2282C32.837 63.6702 33.2109 65.0821 33.8766 66.3625C34.7023 67.9147 35.8554 69.2688 37.2562 70.3313C38.7756 71.5237 40.6124 72.2426 42.5375 72.3983H42.7132L42.7649 72.5534C43.9018 76.3981 45.4624 80.4185 46.899 84.718L46.5579 84.5526L51.7256 82.8266L54.082 82.0308L53.9167 82.3822C52.3767 78.1137 50.8884 74.0106 49.5242 70.2383V70.0832L49.6482 69.9592C51.1507 68.4667 52.2711 66.6337 52.9141 64.6159C53.4623 62.7642 53.4623 60.7934 52.9141 58.9418C51.7876 55.4692 49.4622 52.8337 46.9404 51.9035C45.8241 51.4731 44.6323 51.2727 43.4367 51.3144C42.5439 51.3348 41.6564 51.4562 40.7909 51.6761C39.2509 52.0585 38.5274 52.4099 38.5171 52.3583Z" fill="#263238"/>
</svg>
