<svg width="32" height="33" viewBox="0 0 32 33" fill="none" xmlns="http://www.w3.org/2000/svg">
<path opacity="0.1" fill-rule="evenodd" clip-rule="evenodd" d="M0 16.0707C0 7.23412 7.16344 0.0706787 16 0.0706787C24.8366 0.0706787 32 7.23412 32 16.0707C32 24.9072 24.8366 32.0707 16 32.0707C7.16344 32.0707 0 24.9072 0 16.0707Z" fill="white"/>
<path fill-rule="evenodd" clip-rule="evenodd" d="M16.0007 7.53735C13.6832 7.53735 13.3923 7.54749 12.4821 7.58891C11.5736 7.63051 10.9535 7.77433 10.4109 7.98536C9.84969 8.20332 9.37359 8.49487 8.89928 8.96937C8.42461 9.44368 8.13305 9.91978 7.91438 10.4809C7.70282 11.0236 7.55882 11.6439 7.51793 12.552C7.47722 13.4622 7.46655 13.7532 7.46655 16.0708C7.46655 18.3883 7.47686 18.6783 7.51811 19.5885C7.55989 20.497 7.70371 21.1171 7.91456 21.6596C8.13269 22.2209 8.42425 22.697 8.89875 23.1713C9.37288 23.646 9.84898 23.9382 10.4099 24.1562C10.9528 24.3672 11.5731 24.511 12.4814 24.5526C13.3916 24.5941 13.6823 24.6042 15.9996 24.6042C18.3173 24.6042 18.6073 24.5941 19.5175 24.5526C20.426 24.511 21.0468 24.3672 21.5897 24.1562C22.1508 23.9382 22.6262 23.646 23.1003 23.1713C23.575 22.697 23.8665 22.2209 24.0852 21.6598C24.295 21.1171 24.439 20.4968 24.4817 19.5887C24.5226 18.6784 24.5332 18.3883 24.5332 16.0708C24.5332 13.7532 24.5226 13.4624 24.4817 12.5522C24.439 11.6437 24.295 11.0236 24.0852 10.481C23.8665 9.91978 23.575 9.44368 23.1003 8.96937C22.6256 8.4947 22.151 8.20314 21.5892 7.98536C21.0452 7.77433 20.4247 7.63051 19.5163 7.58891C18.606 7.54749 18.3163 7.53735 15.998 7.53735H16.0007ZM15.2351 9.07512C15.4623 9.07477 15.7158 9.07512 16.0006 9.07512C18.2791 9.07512 18.5491 9.0833 19.4489 9.12419C20.2809 9.16224 20.7324 9.30126 21.0332 9.41806C21.4315 9.57273 21.7154 9.75762 22.0139 10.0563C22.3125 10.355 22.4974 10.6394 22.6525 11.0376C22.7693 11.3381 22.9085 11.7896 22.9463 12.6216C22.9872 13.5212 22.9961 13.7914 22.9961 16.0688C22.9961 18.3462 22.9872 18.6164 22.9463 19.5159C22.9083 20.348 22.7693 20.7995 22.6525 21.1C22.4978 21.4982 22.3125 21.7817 22.0139 22.0802C21.7152 22.3789 21.4316 22.5638 21.0332 22.7185C20.7328 22.8358 20.2809 22.9745 19.4489 23.0125C18.5493 23.0534 18.2791 23.0623 16.0006 23.0623C13.722 23.0623 13.452 23.0534 12.5524 23.0125C11.7204 22.9741 11.2689 22.8351 10.9679 22.7183C10.5697 22.5636 10.2852 22.3787 9.98654 22.0801C9.68787 21.7814 9.50298 21.4977 9.34796 21.0992C9.23116 20.7988 9.09196 20.3472 9.05409 19.5152C9.0132 18.6157 9.00502 18.3454 9.00502 16.0667C9.00502 13.7879 9.0132 13.5191 9.05409 12.6195C9.09213 11.7875 9.23116 11.3359 9.34796 11.0351C9.50263 10.6369 9.68787 10.3525 9.98654 10.0538C10.2852 9.75513 10.5697 9.57024 10.9679 9.41522C11.2687 9.29788 11.7204 9.15921 12.5524 9.12099C13.3396 9.08543 13.6447 9.07477 15.2351 9.07299V9.07512ZM20.5557 10.492C19.9904 10.492 19.5317 10.9502 19.5317 11.5157C19.5317 12.081 19.9904 12.5397 20.5557 12.5397C21.1211 12.5397 21.5797 12.081 21.5797 11.5157C21.5797 10.9503 21.1211 10.492 20.5557 10.492ZM16.0007 11.6885C13.5806 11.6885 11.6184 13.6506 11.6184 16.0708C11.6184 18.4909 13.5806 20.4521 16.0007 20.4521C18.4208 20.4521 20.3823 18.4909 20.3823 16.0708C20.3823 13.6506 18.4208 11.6885 16.0007 11.6885ZM16.0007 13.2263C17.5715 13.2263 18.8451 14.4997 18.8451 16.0708C18.8451 17.6416 17.5715 18.9152 16.0007 18.9152C14.4296 18.9152 13.1562 17.6416 13.1562 16.0708C13.1562 14.4997 14.4296 13.2263 16.0007 13.2263Z" fill="white"/>
</svg>
