<svg width="32" height="33" viewBox="0 0 32 33" fill="none" xmlns="http://www.w3.org/2000/svg">
<path opacity="0.1" fill-rule="evenodd" clip-rule="evenodd" d="M0 16.0707C0 7.23412 7.16344 0.0706787 16 0.0706787C24.8366 0.0706787 32 7.23412 32 16.0707C32 24.9072 24.8366 32.0707 16 32.0707C7.16344 32.0707 0 24.9072 0 16.0707Z" fill="white"/>
<path fill-rule="evenodd" clip-rule="evenodd" d="M24.5332 16.0589C24.5332 16.6359 24.4745 17.2122 24.3591 17.774C24.2465 18.3224 24.0799 18.8608 23.8615 19.3755C23.6482 19.8811 23.3836 20.3683 23.0744 20.8226C22.7698 21.2741 22.419 21.6977 22.0335 22.0838C21.6473 22.4683 21.2222 22.8182 20.771 23.124C20.3151 23.4311 19.8272 23.6953 19.3213 23.9096C18.8059 24.1268 18.2662 24.2932 17.7183 24.4056C17.1558 24.5213 16.5774 24.5803 15.9995 24.5803C15.4211 24.5803 14.8428 24.5213 14.2811 24.4056C13.7323 24.2932 13.1927 24.1268 12.6777 23.9096C12.1718 23.6953 11.6834 23.4311 11.2276 23.124C10.7763 22.8182 10.3513 22.4683 9.96587 22.0838C9.58003 21.6977 9.22915 21.2741 8.92414 20.8226C8.61663 20.3683 8.35159 19.881 8.13743 19.3755C7.91906 18.8608 7.75199 18.3224 7.63907 17.774C7.5249 17.2122 7.46655 16.6359 7.46655 16.0589C7.46655 15.4813 7.52487 14.9038 7.6391 14.3433C7.75203 13.7949 7.91909 13.2556 8.13747 12.7418C8.35163 12.2358 8.61666 11.7482 8.92418 11.2938C9.22919 10.8419 9.58006 10.4192 9.9659 10.0326C10.3513 9.64814 10.7764 9.29908 11.2276 8.99367C11.6835 8.68533 12.1719 8.42115 12.6777 8.20643C13.1927 7.98877 13.7323 7.82195 14.2811 7.71045C14.8428 7.59562 15.4212 7.53735 15.9995 7.53735C16.5775 7.53735 17.1558 7.59562 17.7184 7.71045C18.2663 7.82198 18.8059 7.98881 19.3214 8.20643C19.8272 8.42112 20.3152 8.68533 20.771 8.99367C21.2223 9.29908 21.6473 9.64814 22.0336 10.0326C22.419 10.4192 22.7699 10.8419 23.0745 11.2938C23.3836 11.7482 23.6482 12.2359 23.8615 12.7418C24.0799 13.2556 24.2465 13.7949 24.3591 14.3433C24.4745 14.9038 24.5332 15.4813 24.5332 16.0589ZM12.8901 9.47673C10.8579 10.435 9.34119 12.3049 8.86824 14.5584C9.06036 14.5601 12.0972 14.5984 15.5961 13.6701C14.3348 11.4323 12.9872 9.60617 12.8901 9.47673ZM16.1999 14.7906C12.4476 15.9124 8.84699 15.8317 8.71783 15.8267C8.71573 15.9049 8.71199 15.9806 8.71199 16.0588C8.71199 17.9283 9.41827 19.6326 10.5792 20.9213C10.5767 20.9175 12.571 17.3845 16.5036 16.1146C16.5986 16.083 16.6953 16.0547 16.7912 16.0272C16.6083 15.6137 16.4086 15.1992 16.1999 14.7906ZM20.8122 10.5973C19.5292 9.46757 17.8446 8.78232 15.9995 8.78232C15.4074 8.78232 14.8327 8.85389 14.2823 8.9862C14.3915 9.13268 15.7603 10.946 17.0066 13.2311C19.7563 12.2017 20.7943 10.6239 20.8122 10.5973ZM17.2879 17.233C17.2717 17.2384 17.2554 17.2431 17.2396 17.2489C12.9398 18.7456 11.5357 21.7621 11.5205 21.795C12.7577 22.7558 14.3094 23.3354 15.9995 23.3354C17.0087 23.3354 17.97 23.1302 18.8446 22.7587C18.7367 22.1229 18.3134 19.8943 17.2879 17.233ZM20.0718 22.0938C21.7081 20.9912 22.8702 19.2403 23.1944 17.2122C23.0444 17.1639 21.0055 16.5194 18.6533 16.896C19.6092 19.519 19.9976 21.6552 20.0718 22.0938ZM17.5675 14.3154C17.7367 14.6625 17.9005 15.0157 18.0517 15.3706C18.1055 15.498 18.158 15.6228 18.2092 15.7476C20.7127 15.433 23.179 15.9623 23.2845 15.9839C23.2678 14.2588 22.6498 12.6756 21.6273 11.4361C21.6136 11.4556 20.4448 13.142 17.5675 14.3154Z" fill="white"/>
</svg>
