<svg width="32" height="33" viewBox="0 0 32 33" fill="none" xmlns="http://www.w3.org/2000/svg">
<path opacity="0.1" fill-rule="evenodd" clip-rule="evenodd" d="M0 16.0707C0 7.23412 7.16344 0.0706787 16 0.0706787C24.8366 0.0706787 32 7.23412 32 16.0707C32 24.9072 24.8366 32.0707 16 32.0707C7.16344 32.0707 0 24.9072 0 16.0707Z" fill="white"/>
<path fill-rule="evenodd" clip-rule="evenodd" d="M22.6679 10.5703C23.4022 10.7718 23.9805 11.3655 24.1768 12.1195C24.5335 13.4861 24.5335 16.3374 24.5335 16.3374C24.5335 16.3374 24.5335 19.1886 24.1768 20.5552C23.9805 21.3092 23.4022 21.903 22.6679 22.1046C21.3371 22.4707 16.0001 22.4707 16.0001 22.4707C16.0001 22.4707 10.6632 22.4707 9.3323 22.1046C8.59795 21.903 8.01962 21.3092 7.82335 20.5552C7.4668 19.1886 7.4668 16.3374 7.4668 16.3374C7.4668 16.3374 7.4668 13.4861 7.82335 12.1195C8.01962 11.3655 8.59795 10.7718 9.3323 10.5703C10.6632 10.204 16.0001 10.204 16.0001 10.204C16.0001 10.204 21.3371 10.204 22.6679 10.5703ZM14.4001 13.9373V19.2707L18.6668 16.6041L14.4001 13.9373Z" fill="white"/>
</svg>
