<svg width="55" height="61" viewBox="0 0 55 61" fill="none" xmlns="http://www.w3.org/2000/svg">
<path d="M27.5656 0.143626H27.0799L25.6743 0.246985C24.9136 0.292685 24.1572 0.392858 23.4108 0.546716C22.9274 0.614595 22.4479 0.707728 21.9742 0.825757L20.3723 1.27018C17.6456 2.1067 15.0731 3.38076 12.7552 5.04255C9.69271 7.26543 7.13551 10.1115 5.25177 13.3934C4.14459 15.2853 3.26349 17.3007 2.62661 19.3982C1.9574 21.6779 1.57209 24.0315 1.47941 26.4055C1.41781 27.6527 1.43852 28.9025 1.54142 30.1469C1.54142 30.7774 1.71711 31.4078 1.7998 32.0486C1.86934 32.6945 1.9903 33.3339 2.16153 33.9606C3.0909 38.1079 4.97662 41.9806 7.66826 45.2698C10.3599 48.559 13.783 51.1736 17.6644 52.9052C20.4737 54.1173 23.4847 54.7938 26.5424 54.8999C29.7006 55.0736 32.8619 54.6204 35.8442 53.5666L36.7537 53.2255H36.8777L36.981 53.2876L50.0138 59.9021L49.6314 60.2329C48.2361 55.9127 46.8926 51.7269 45.5903 47.7065V47.5515L45.704 47.4378C48.8656 44.2534 51.2125 40.3536 52.5459 36.069C53.7536 32.1519 54.1061 28.0212 53.5795 23.9561C53.111 20.3434 51.9495 16.8551 50.1585 13.6828C48.6147 10.9578 46.6232 8.51202 44.2674 6.44814C42.3238 4.81457 40.1726 3.44532 37.8699 2.37605C36.1275 1.62455 34.3128 1.05315 32.4542 0.670734L30.3871 0.329669L28.8885 0.21598L27.979 0.153971H27.669C27.772 0.142537 27.876 0.142537 27.979 0.153971H28.8989L30.3975 0.21598L32.4645 0.515696C34.3463 0.870113 36.1857 1.42091 37.9526 2.15901C40.2949 3.21558 42.4848 4.58168 44.4638 6.22077C46.8628 8.27548 48.8966 10.7216 50.4789 13.4555C52.3207 16.6618 53.5179 20.1973 54.0032 23.8631C54.5736 27.9909 54.2457 32.1933 53.042 36.1827C51.6999 40.5564 49.3167 44.5392 46.0967 47.7892L46.1588 47.5205C47.461 51.5409 48.8149 55.7267 50.2205 60.0365L50.4169 60.667L49.8278 60.3672L36.795 53.763H37.0224L36.0922 54.1041C33.0525 55.1737 29.8327 55.6371 26.6148 55.4683C23.4911 55.3494 20.4171 54.6484 17.5507 53.4013C12.0831 51.0596 7.53403 46.9898 4.60065 41.8154C3.25078 39.4257 2.26496 36.848 1.67577 34.1673C1.51442 33.5244 1.39361 32.872 1.31404 32.214C1.23136 31.5628 1.097 30.9221 1.06599 30.2813C0.786278 26.6038 1.17496 22.9061 2.21321 19.3672C2.86595 17.2409 3.77159 15.2006 4.91071 13.2901C6.83939 9.97828 9.44986 7.11417 12.5691 4.88752C14.9252 3.22148 17.541 1.95724 20.3103 1.14615L21.9329 0.732743C22.4105 0.621965 22.8934 0.535725 23.3798 0.474362C24.1339 0.334729 24.8974 0.251809 25.6639 0.22631L27.0799 0.174646C27.2408 0.152962 27.4032 0.142586 27.5656 0.143626Z" fill="#4CAF4F"/>
<path d="M33.4567 24.2455H31.5447L27.4105 18.437V14.6233C27.4105 14.6233 24.4547 14.4373 24.8061 19.4292C25.1575 24.4212 24.8061 23.1499 24.8061 23.1499C24.8061 23.1499 18.5326 23.1499 18.0158 23.7184C17.499 24.2868 17.468 30.3433 17.3957 33.7229C17.3561 34.5376 17.5898 35.3422 18.0599 36.0088C18.5299 36.6754 19.2092 37.1659 19.9898 37.4022C20.2087 37.4629 20.4346 37.4942 20.6616 37.4953C22.2326 37.4953 30.2217 36.224 30.2217 36.224H33.5187L33.4567 24.2455Z" fill="#4CAF4F"/>
<path d="M38.9241 23.2223L37.7459 36.2861H34.48V23.491L38.9241 23.2223Z" fill="#4CAF4F"/>
</svg>
