<svg width="151" height="305" viewBox="0 0 151 305" fill="none" xmlns="http://www.w3.org/2000/svg">
<path d="M126.571 304.779L23.3321 304.303C17.3701 304.27 11.6649 301.873 7.4695 297.636C3.27409 293.4 0.93151 287.672 0.956249 281.71L2.05178 22.9049C2.06397 19.9511 2.65816 17.0287 3.80042 14.3047C4.94267 11.5807 6.6106 9.10859 8.70882 7.02956C10.807 4.95054 13.2944 3.30541 16.0288 2.18824C18.7632 1.07107 21.6909 0.503757 24.6447 0.518721L127.873 0.994142C133.835 1.02423 139.542 3.41937 143.739 7.65354C147.936 11.8877 150.281 17.6147 150.259 23.5767L149.164 282.372C149.152 285.326 148.558 288.25 147.416 290.975C146.274 293.7 144.606 296.174 142.508 298.254C140.41 300.335 137.923 301.982 135.189 303.102C132.454 304.221 129.526 304.791 126.571 304.779Z" fill="#455A64"/>
</svg>
