<svg width="5" height="5" viewBox="0 0 5 5" fill="none" xmlns="http://www.w3.org/2000/svg">
<path d="M4.98411 2.82675C4.9556 3.24309 4.80536 3.64188 4.55207 3.97354C4.29877 4.3052 3.95361 4.5551 3.55945 4.69219C3.16529 4.82929 2.73954 4.84754 2.3351 4.74465C1.93066 4.64175 1.56536 4.42225 1.28464 4.11345C1.00392 3.80466 0.820138 3.42018 0.75614 3.00779C0.692141 2.59541 0.750768 2.17333 0.924693 1.79398C1.09862 1.41463 1.38018 1.09476 1.73441 0.874127C2.08863 0.653493 2.49989 0.541831 2.91706 0.553011C3.49004 0.5877 4.02681 0.844806 4.41294 1.26955C4.79907 1.6943 5.00402 2.25307 4.98411 2.82675Z" fill="#4CAF4F"/>
</svg>
