<svg width="5" height="5" viewBox="0 0 5 5" fill="none" xmlns="http://www.w3.org/2000/svg">
<path d="M4.8787 2.62011C4.89903 2.91148 4.85919 3.20389 4.76166 3.47921C4.66414 3.75453 4.51101 4.00685 4.3118 4.22045C4.11258 4.43406 3.87155 4.60439 3.60369 4.72085C3.33583 4.83731 3.04687 4.89741 2.75479 4.89741C2.46271 4.89741 2.17375 4.83731 1.90589 4.72085C1.63803 4.60439 1.397 4.43406 1.19778 4.22045C0.998569 4.00685 0.845442 3.75453 0.747917 3.47921C0.650392 3.20389 0.610562 2.91148 0.6309 2.62011C0.610562 2.32873 0.650392 2.03629 0.747917 1.76097C0.845442 1.48565 0.998569 1.23333 1.19778 1.01973C1.397 0.806129 1.63803 0.635797 1.90589 0.519338C2.17375 0.402879 2.46271 0.342773 2.75479 0.342773C3.04687 0.342773 3.33583 0.402879 3.60369 0.519338C3.87155 0.635797 4.11258 0.806129 4.3118 1.01973C4.51101 1.23333 4.66414 1.48565 4.76166 1.76097C4.85919 2.03629 4.89903 2.32873 4.8787 2.62011Z" fill="#4CAF4F"/>
</svg>
