<svg width="137" height="286" viewBox="0 0 137 286" fill="none" xmlns="http://www.w3.org/2000/svg">
<path d="M120.718 0.892812H100.709C100.056 0.904914 99.4123 1.04552 98.8138 1.3066C98.2153 1.56767 97.674 1.9441 97.221 2.41438C96.768 2.88467 96.4121 3.43959 96.1736 4.04746C95.9351 4.65533 95.8187 5.30423 95.831 5.95709V9.58477C95.8434 10.2371 95.7269 10.8855 95.4882 11.4928C95.2496 12.1001 94.8935 12.6543 94.4404 13.1238C93.9872 13.5932 93.4459 13.9687 92.8475 14.2287C92.249 14.4886 91.6052 14.628 90.9528 14.6387L51.9475 14.463C50.628 14.4278 49.3764 13.8704 48.4675 12.9131C47.5587 11.9558 47.0669 10.677 47.1003 9.3574V5.72972C47.1336 4.41189 46.6433 3.13456 45.7367 2.17757C44.83 1.22058 43.5811 0.661961 42.2633 0.624093H35.225L17.7068 0.541417C13.54 0.516609 9.53315 2.14389 6.56359 5.06696C3.59403 7.99003 1.90373 11.9707 1.8628 16.1373L0.829269 268.752C0.819746 270.819 1.21746 272.868 1.99971 274.781C2.78197 276.694 3.93345 278.435 5.38839 279.903C6.84332 281.372 8.57323 282.539 10.4793 283.339C12.3855 284.139 14.4304 284.555 16.4975 284.565L119.519 285.04C121.588 285.05 123.638 284.652 125.553 283.869C127.467 283.086 129.209 281.934 130.678 280.478C132.148 279.022 133.316 277.291 134.116 275.384C134.916 273.476 135.333 271.43 135.343 269.362L136.376 16.7471C136.401 12.5687 134.766 8.55149 131.829 5.57851C128.893 2.60553 124.897 0.920139 120.718 0.892812Z" fill="white"/>
</svg>
