<svg width="5" height="5" viewBox="0 0 5 5" fill="none" xmlns="http://www.w3.org/2000/svg">
<path d="M4.63963 2.70276C4.61112 3.1191 4.46088 3.51789 4.20759 3.84955C3.95429 4.18121 3.6091 4.43111 3.21494 4.5682C2.82078 4.70529 2.39504 4.72352 1.9906 4.62062C1.58617 4.51773 1.22088 4.29825 0.940156 3.98946C0.659436 3.68067 0.475659 3.29618 0.41166 2.8838C0.347661 2.47142 0.406272 2.04934 0.580198 1.66999C0.754124 1.29064 1.0357 0.970768 1.38993 0.750135C1.74415 0.529501 2.15541 0.417807 2.57258 0.428987C3.14556 0.463676 3.68233 0.720814 4.06846 1.14556C4.45459 1.57031 4.65954 2.12908 4.63963 2.70276Z" fill="#4CAF4F"/>
</svg>
