<svg width="5" height="6" viewBox="0 0 5 6" fill="none" xmlns="http://www.w3.org/2000/svg">
<path d="M4.81716 2.76473C4.83749 3.0561 4.79767 3.34855 4.70014 3.62387C4.60261 3.89919 4.44949 4.1515 4.25027 4.36511C4.05106 4.57871 3.81001 4.74904 3.54215 4.8655C3.27429 4.98196 2.98535 5.04203 2.69327 5.04203C2.40118 5.04203 2.11221 4.98196 1.84435 4.8655C1.57649 4.74904 1.33547 4.57871 1.13626 4.36511C0.937046 4.1515 0.783918 3.89919 0.686393 3.62387C0.588868 3.34855 0.549039 3.0561 0.569377 2.76473C0.549039 2.47336 0.588868 2.18091 0.686393 1.90559C0.783918 1.63027 0.937046 1.37796 1.13626 1.16435C1.33547 0.950751 1.57649 0.780451 1.84435 0.663992C2.11221 0.547533 2.40118 0.487427 2.69327 0.487427C2.98535 0.487427 3.27429 0.547533 3.54215 0.663992C3.81001 0.780451 4.05106 0.950751 4.25027 1.16435C4.44949 1.37796 4.60261 1.63027 4.70014 1.90559C4.79767 2.18091 4.83749 2.47336 4.81716 2.76473Z" fill="#4CAF4F"/>
</svg>
