<svg width="5" height="5" viewBox="0 0 5 5" fill="none" xmlns="http://www.w3.org/2000/svg">
<path d="M4.40065 2.79572C4.37244 3.20991 4.22374 3.60684 3.97287 3.93762C3.72199 4.2684 3.37988 4.51861 2.98864 4.65747C2.5974 4.79633 2.17409 4.81777 1.77082 4.71917C1.36755 4.62056 1.0019 4.40618 0.718874 4.10245C0.435852 3.79872 0.247819 3.41888 0.177887 3.00966C0.107956 2.60044 0.15918 2.1797 0.325277 1.79922C0.491374 1.41874 0.76508 1.0951 1.11272 0.86817C1.46037 0.641239 1.86678 0.520924 2.28194 0.52198C2.86407 0.543531 3.41393 0.794924 3.81106 1.22111C4.20819 1.6473 4.4202 2.21351 4.40065 2.79572Z" fill="#4CAF4F"/>
</svg>
