<svg width="108" height="19" viewBox="0 0 108 19" fill="none" xmlns="http://www.w3.org/2000/svg">
<path d="M104.785 18.6069C104.994 18.5813 105.201 18.5433 105.405 18.4932C105.694 18.4014 105.96 18.2487 106.184 18.0454C106.409 17.8422 106.587 17.5931 106.708 17.315C106.87 16.8978 106.934 16.4485 106.894 16.0024C106.894 15.5063 106.894 14.9689 106.894 14.3695C106.894 13.1706 106.894 11.8063 106.894 10.2354V3.67248C106.943 3.19733 106.838 2.71893 106.594 2.30821C106.339 1.887 105.938 1.57431 105.467 1.42973C104.953 1.33786 104.428 1.31009 103.907 1.34704H89.0344L2.88992 1.02665C2.42656 1.02774 1.97937 1.19705 1.63148 1.50312C1.28359 1.80919 1.05868 2.23118 0.998567 2.69063C0.998567 3.67248 0.998567 4.75768 0.998567 5.79121C0.998567 7.85826 0.998567 9.92531 0.998567 11.9924C0.998567 13.0259 0.998567 14.0594 0.998567 15.0929C0.960067 15.576 0.98089 16.0619 1.06058 16.5399C1.18962 16.959 1.45521 17.3228 1.81505 17.5734C2.19682 17.8157 2.64528 17.9314 3.09663 17.9041H4.53323H7.52012L30.3921 18.0178L69.1183 18.2555L95.2252 18.4622L102.326 18.5449H95.2252H69.1183L30.3714 18.5036L7.49944 18.4209H3.00361C2.44459 18.454 1.88986 18.3054 1.42232 17.9972C0.952035 17.6714 0.608814 17.1931 0.4508 16.6432C0.358166 16.1181 0.330396 15.5835 0.368116 15.0516C0.368116 14.0181 0.368116 12.9845 0.368116 11.951C0.368116 9.88396 0.368116 7.81691 0.368116 5.74986C0.368116 4.71633 0.368116 3.68281 0.368116 2.64928C0.443529 2.0583 0.731743 1.51507 1.17881 1.12127C1.62587 0.727477 2.20114 0.510123 2.79691 0.509888L88.9414 0.985301L103.814 1.09899C104.368 1.06502 104.923 1.10323 105.467 1.21268C106.004 1.38813 106.457 1.75635 106.739 2.2462C107.006 2.70143 107.122 3.22984 107.069 3.75516C107.069 4.24092 107.069 4.71634 107.069 5.19176C107.069 7.06244 107.069 8.7781 107.069 10.3594C107.069 11.9407 107.069 13.2739 107.069 14.4935C107.069 15.0826 107.069 15.6304 107.069 16.1368C107.107 16.599 107.033 17.0634 106.852 17.4907C106.718 17.7759 106.524 18.0288 106.283 18.2321C106.043 18.4354 105.761 18.5844 105.457 18.6689C105.231 18.6876 105.004 18.6666 104.785 18.6069Z" fill="#E0E0E0"/>
</svg>
