<svg width="6" height="5" viewBox="0 0 6 5" fill="none" xmlns="http://www.w3.org/2000/svg">
<path d="M5.23344 2.73374C5.20523 3.14793 5.05653 3.54483 4.80566 3.87561C4.55478 4.20639 4.21267 4.45663 3.82143 4.59549C3.43018 4.73435 3.00688 4.75579 2.60361 4.65719C2.20033 4.55858 1.83468 4.3442 1.55166 4.04047C1.26864 3.73674 1.08058 3.3569 1.01064 2.94768C0.940713 2.53846 0.991969 2.11772 1.15807 1.73724C1.32416 1.35676 1.59787 1.03312 1.94551 0.80619C2.29315 0.579259 2.69954 0.458912 3.11469 0.459968C3.69683 0.481519 4.24669 0.732944 4.64382 1.15913C5.04095 1.58532 5.25299 2.15153 5.23344 2.73374Z" fill="#4CAF4F"/>
</svg>
