<svg width="107" height="20" viewBox="0 0 107 20" fill="none" xmlns="http://www.w3.org/2000/svg">
<path d="M104.578 19.0227C104.787 18.998 104.995 18.96 105.199 18.909C105.486 18.8176 105.751 18.6663 105.975 18.4649C106.2 18.2636 106.379 18.0169 106.501 17.7411C106.663 17.3237 106.727 16.8745 106.687 16.4285C106.687 15.9221 106.687 15.395 106.687 14.7852C106.687 13.5967 106.687 12.2221 106.687 10.6511V4.08821C106.736 3.61307 106.631 3.13466 106.387 2.72395C106.126 2.31042 105.727 2.00281 105.261 1.85579C104.746 1.76026 104.222 1.72902 103.7 1.76278H88.8276L2.68314 1.44239C2.21978 1.44348 1.77257 1.61281 1.42468 1.91887C1.07679 2.22494 0.851895 2.6469 0.791784 3.10635C0.791784 4.13988 0.791784 5.1734 0.791784 6.20693C0.791784 8.27398 0.791784 10.341 0.791784 12.4081C0.791784 13.4416 0.791784 14.4751 0.791784 15.5087C0.753297 15.9883 0.774122 16.4708 0.853793 16.9453C0.977566 17.367 1.24433 17.7324 1.60826 17.9788C1.98766 18.2265 2.43795 18.3427 2.88984 18.3095H7.38567L30.2576 18.4336L68.9838 18.6713L95.0907 18.878L102.191 18.9606H95.0907H68.9838L30.2576 18.847L7.38567 18.754H2.88984C2.33036 18.7917 1.77419 18.6427 1.30855 18.3302C0.838265 18.0044 0.495045 17.5261 0.33703 16.9763C0.244397 16.4511 0.216626 15.9166 0.254346 15.3846C0.254346 14.3511 0.254346 13.3176 0.254346 12.2841C0.254346 10.217 0.254346 8.14996 0.254346 6.08291C0.254346 5.04938 0.254346 4.01587 0.254346 2.93067C0.327413 2.34056 0.613524 1.79747 1.05889 1.4035C1.50425 1.00952 2.07818 0.791793 2.67279 0.79126L88.8172 1.26667L103.69 1.38038C104.243 1.3464 104.799 1.3846 105.343 1.49405C105.88 1.6695 106.333 2.03772 106.615 2.52758C106.882 2.9828 106.998 3.51119 106.945 4.03652C106.945 4.52227 106.945 5.00805 106.945 5.47313C106.945 7.34382 106.945 9.05947 106.945 10.6408C106.945 12.2221 106.945 13.5553 106.945 14.7749C106.945 15.364 106.945 15.9117 106.945 16.4182C106.985 16.8804 106.91 17.3454 106.728 17.7721C106.594 18.0573 106.4 18.3102 106.159 18.5135C105.918 18.7168 105.637 18.8658 105.333 18.9503C105.091 19.0333 104.832 19.058 104.578 19.0227Z" fill="#E0E0E0"/>
</svg>
