<svg width="5" height="5" viewBox="0 0 5 5" fill="none" xmlns="http://www.w3.org/2000/svg">
<path d="M4.29514 2.58906C4.26464 3.00479 4.11278 3.40242 3.85838 3.73263C3.60398 4.06285 3.25824 4.31112 2.86404 4.44665C2.46984 4.58219 2.04453 4.59902 1.64085 4.49507C1.23717 4.39111 0.872881 4.17096 0.593175 3.86189C0.313469 3.55281 0.130655 3.1684 0.0673907 2.75638C0.00412613 2.34436 0.0631931 1.92284 0.237285 1.54408C0.411376 1.16533 0.692836 0.846021 1.04673 0.625745C1.40062 0.405469 1.81139 0.29392 2.22809 0.304944C2.80388 0.337028 3.34382 0.594843 3.73078 1.02243C4.11774 1.45002 4.32052 2.01293 4.29514 2.58906Z" fill="#4CAF4F"/>
</svg>
