<svg width="5" height="5" viewBox="0 0 5 5" fill="none" xmlns="http://www.w3.org/2000/svg">
<path d="M4.47239 2.65107C4.44189 3.0668 4.29003 3.46443 4.03563 3.79464C3.78123 4.12486 3.43549 4.37313 3.04129 4.50866C2.64709 4.6442 2.22177 4.66103 1.81809 4.55708C1.41441 4.45312 1.05013 4.23297 0.770421 3.9239C0.490715 3.61482 0.307901 3.23042 0.244637 2.8184C0.181372 2.40638 0.240439 1.98485 0.414531 1.6061C0.588623 1.22734 0.870082 0.908032 1.22398 0.687757C1.57787 0.467481 1.98863 0.355932 2.40533 0.366956C2.98017 0.401657 3.51852 0.66023 3.90494 1.08722C4.29135 1.51421 4.49506 2.07564 4.47239 2.65107Z" fill="#4CAF4F"/>
</svg>
